<?xml version="1.0" encoding="utf-8"?><svg xmlns="http://www.w3.org/2000/svg" xmlns:xlink="http://www.w3.org/1999/xlink"><symbol viewBox="0 0 18 12" id="burger" xmlns="http://www.w3.org/2000/svg"><path d="M0 12h18v-2H0v2zm0-5h18V5H0v2zm0-7v2h18V0H0z"/></symbol><symbol viewBox="0 0 12 8" id="caret-down" xmlns="http://www.w3.org/2000/svg"><path d="M10.6.6L6 5.2 1.4.6 0 2l6 6 6-6z"/></symbol><symbol viewBox="0 0 8 12" id="caret-right" xmlns="http://www.w3.org/2000/svg"><path d="M.6 1.4L2 0l6 6-6 6-1.4-1.4L5.2 6z"/></symbol><symbol viewBox="0 0 18 14" id="check" xmlns="http://www.w3.org/2000/svg"><path fill="#FFF" d="M5.6 10.6L1.4 6.4 0 7.8l5.6 5.6 12-12L16.2 0z" fill-rule="evenodd"/></symbol><symbol viewBox="0 0 14 14" id="close" xmlns="http://www.w3.org/2000/svg"><path d="M14 1.4L12.6 0 7 5.6 1.4 0 0 1.4 5.6 7 0 12.6 1.4 14 7 8.4l5.6 5.6 1.4-1.4L8.4 7z"/></symbol><symbol viewBox="0 0 51 53" id="cta-banner" xmlns="http://www.w3.org/2000/svg"><g fill="#2F9FF9" fill-rule="evenodd"><path d="M2.008 5.998l45.984-1.956c2.67-.114 2.685-4.154 0-4.04L2.008 1.958c-2.67.114-2.685 4.154 0 4.04m4.621 29.966a380.123 380.123 0 0 1 42.354-4.829c2.68-.155 2.698-4.286 0-4.13A390.185 390.185 0 0 0 5.515 31.98c-2.653.455-1.528 4.436 1.114 3.983"/><path d="M.245 4.95c.458.887 1.444 1.19 2.346.992C3.57 5.73 4.23 4.496 3.925 3.53c-.334-1.061-1.3-1.599-2.35-1.37l-.056.013h1.015l-.057-.015.456.198-.047-.036.685.704a1.4 1.4 0 0 0-.027-.053C3.074 2.063 1.772 1.71.93 2.267.032 2.862-.257 3.98.245 4.951"/><path d="M.028 5.616C1.52 15.553 2.522 25.58 4.086 35.492c.416 2.64 4.297 1.52 3.883-1.107-1.563-9.91-2.567-19.942-4.058-29.877C3.515 1.866-.366 2.988.028 5.616M47 3.074c.009 9.285.187 18.567.195 27.851a1.91 1.91 0 0 0 3.805 0c-.009-9.284-.187-18.566-.195-27.85a1.91 1.91 0 0 0-3.805 0M25.013 31.952a374.202 374.202 0 0 1 1.5 18.082c.153 2.613 4.637 2.63 4.483 0a374.202 374.202 0 0 0-1.5-18.082c-.278-2.59-4.764-2.616-4.483 0"/><path d="M28.151 52.995c1.71.029 3.548-.063 5.22-.365 1.176-.213 1.862-1.356 1.556-2.285-.334-1.012-1.56-1.51-2.74-1.296-.139.025-.277.042-.417.064.578-.09-.084.004-.167.012-.415.036-.83.064-1.245.088a29.58 29.58 0 0 1-2.207.068c-2.868-.05-2.868 3.664 0 3.714"/><path d="M30.008 31.049c.517 6.615 1.052 13.245.967 19.888-.034 2.75 3.982 2.751 4.016 0 .084-6.643-.45-13.273-.967-19.888-.212-2.72-4.23-2.744-4.016 0M12.581 14.967a196.68 196.68 0 0 1 26.435-2.683c2.64-.09 2.651-4.373 0-4.283a204.852 204.852 0 0 0-27.528 2.836c-2.606.446-1.5 4.573 1.093 4.13m1.001 8.011a401.991 401.991 0 0 1 27.441-2.8c2.626-.18 2.646-4.353 0-4.172a417.598 417.598 0 0 0-28.534 2.949c-2.61.359-1.498 4.379 1.093 4.023"/></g></symbol><symbol viewBox="0 0 42 53" id="cta-document" xmlns="http://www.w3.org/2000/svg"><g fill="none" fill-rule="evenodd"><path d="M36.786 49.463l-29.93 1.045c-1.671.059-3.071-1.225-3.129-2.868L2.295 6.615c-.058-1.641 1.25-3.02 2.92-3.078l29.93-1.045c1.67-.059 3.07 1.225 3.128 2.867l1.432 41.025c.058 1.642-1.25 3.02-2.919 3.08z" stroke="#2F9FF9" stroke-width="4"/><path d="M12.363 16.295l17.541-.612c2.295-.08 2.16-4.078-.14-3.998l-17.54.613c-2.297.08-2.16 4.078.139 3.997m.314 8.995l17.54-.613c2.297-.08 2.16-4.078-.139-3.997l-17.54.612c-2.296.08-2.16 4.078.139 3.998m1.353 8.958l12.466-.435c2.347-.082 2.211-4.08-.14-3.998l-12.466.435c-2.348.082-2.212 4.08.14 3.998" fill="#2F9FF9"/></g></symbol><symbol viewBox="0 0 42 57" id="cta-hand" xmlns="http://www.w3.org/2000/svg"><g fill="#2F9FF9" fill-rule="evenodd"><path d="M7.914 53.67c.46-2.51.978-5.004 1.498-7.502.337-1.621.86-3.225.216-4.835-.76-1.898-2.714-3.068-3.826-4.755-1.831-2.778-3.167-6.716-.737-9.538 3.277-3.803 9.734-5.172 14.502-5.191 1.445-.006 9.865.386 5.678 3.904-1.28 1.076-6.471.963-8.068 1.187-2.356.332-1.354 3.879.986 3.55 4.09-.575 15.38-.839 12.317-8.034-2.55-5.993-13.366-4.648-18.275-3.311C6.354 20.738-.687 24.567.054 31.448.399 34.65 1.837 37.707 3.9 40.17c1.743 2.08 2.425 2.735 1.797 5.643a225.73 225.73 0 0 0-1.364 6.88c-.424 2.316 3.153 3.31 3.58.978"/><path d="M9.439 21.694c-.928-4.665-2.158-10.738 1.59-14.567 2.76-2.82 2.983 1.665 3.139 3.625.227 2.861.095 5.554-.837 8.29-.766 2.248 2.78 3.213 3.542.978 1.294-3.796 3.042-20.005-4.825-17.818-8.606 2.392-7.445 13.96-6.151 20.471.461 2.324 4.002 1.34 3.542-.98"/><path d="M17.523 8.101c.284-.862 1.005-2.978 1.953-3.462 3.336-1.7 2.746 2.793 2.662 3.955-.216 2.992-.976 5.869-2.147 8.61-.91 2.13 2.146 3.99 3.063 1.843 1.894-4.435 4.905-13.187 1.156-17.43-4.059-4.597-8.846 1.681-10.108 5.514-.733 2.23 2.691 3.186 3.42.97"/><path d="M26.7 7.37c.004-1.11 1.76-3.686 3.14-2.945.782.42.311 4.946.21 5.811a17.051 17.051 0 0 1-1.575 5.46c-.4.843-1.332 3.365-2.085 3.857l2.718 1.106a6.759 6.759 0 0 1-.023-.12c-.43.76-.861 1.518-1.292 2.277l.086-.016c2.337-.442 1.347-4.01-.984-3.57l-.086.017c-1.036.196-1.466 1.361-1.292 2.276l.023.12c.219 1.146 1.772 1.723 2.717 1.106 2.517-1.645 4.196-6.362 4.954-9.189.893-3.33 1.24-7.867-.105-11.13C30.602-3.649 23.015 3.075 23 7.37c-.009 2.383 3.691 2.386 3.7 0"/><path d="M34.142 11.964c.572-1.155 1.082-2.89 1.996-3.814 1.08-1.094 2.3-.696 1.993 1.09-.152.892-.38 1.773-.637 2.64-.573 1.93-1.393 3.772-2.509 5.456-.326.491-1.503 2.612-2.347 2.578-1.346-.055-.97-.636-.851-1.762.246-2.362-3.491-2.345-3.735 0-.384 3.678 1.365 7.176 5.691 5.347 4.141-1.75 6.418-7.177 7.508-11.159.825-3.015 1.866-8.153-2.35-9.186-4.456-1.09-6.457 3.86-7.984 6.946-1.052 2.127 2.169 4.002 3.225 1.864"/><path d="M33.414 22.315c-1.117 7.67-4.972 20.525-14.079 22.151-2.337.417-1.348 3.916.982 3.5 10.5-1.874 15.358-15.733 16.661-24.686.333-2.285-3.228-3.272-3.564-.965"/><path d="M21.381 44.762a324.591 324.591 0 0 1-1.355 9.911c-.356 2.333 3.115 3.338 3.473.986a357.529 357.529 0 0 0 1.485-10.897c.286-2.36-3.32-2.339-3.603 0"/></g></symbol><symbol viewBox="0 0 17 20" id="document-add" xmlns="http://www.w3.org/2000/svg"><path d="M0 2h2v17H0zm13 6h2v12h-2z"/><path d="M0 2h9v2H0zm11 0h6v2h-6z"/><path d="M13 0h2v6h-2zM4 6h7v2H4zm0 4h7v2H4zm0 4h4v2H4zm-4 4h15v2H0z"/></symbol><symbol viewBox="0 0 14 14" id="facebook" xmlns="http://www.w3.org/2000/svg"><defs><path id="ja" d="M0 0h14v14H0z"/></defs><mask id="jb"><use xlink:href="#ja"/></mask><path d="M14 13.227a.773.773 0 0 1-.773.773H9.66V8.578h1.82l.273-2.113H9.659V5.117c0-.612.17-1.029 1.048-1.029h1.119v-1.89a14.957 14.957 0 0 0-1.63-.084c-1.614 0-2.718.985-2.718 2.794v1.557H5.654v2.113h1.824V14H.773A.773.773 0 0 1 0 13.227V.773C0 .346.346 0 .773 0h12.454c.427 0 .773.346.773.773v12.454z" mask="url(#jb)"/></symbol><symbol viewBox="0 0 16 18" id="flag-outline" xmlns="http://www.w3.org/2000/svg"><path d="M1.375 10.5V18H.25V0h14.938c.5 0 .751.606.397.96l-4.29 4.29 4.29 4.29a.563.563 0 0 1-.398.96H1.376zm0-9.375v8.25H13.83l-3.728-3.727a.563.563 0 0 1 0-.796l3.728-3.727H1.375z"/></symbol><symbol viewBox="0 0 16 18" id="flag-solid" xmlns="http://www.w3.org/2000/svg"><path d="M1.375 10.5V18H.25V0h14.938c.5 0 .751.606.397.96l-4.29 4.29 4.29 4.29a.563.563 0 0 1-.398.96H1.376z"/></symbol><symbol viewBox="0 0 29 26" id="illustration-checkbox" xmlns="http://www.w3.org/2000/svg"><defs><path id="ma" d="M0 22.022V.246h3.135v21.776z"/><path id="mc" d="M.14.525h17.542v17.86H.139z"/></defs><g fill="none" fill-rule="evenodd"><path d="M1.296 25.99a88.514 88.514 0 0 1 17.779-.225c1.743.154 1.732-2.422 0-2.574a88.513 88.513 0 0 0-17.779.224c-1.718.195-1.738 2.771 0 2.574" fill="#231F20"/><g transform="translate(0 3.94)"><mask id="mb" fill="#fff"><use xlink:href="#ma"/></mask><path d="M0 1.612v19.044c0 1.82 3.135 1.822 3.135 0V1.612C3.135-.208 0-.211 0 1.612" fill="#231F20" mask="url(#mb)"/></g><path d="M2.068 7.082a288.517 288.517 0 0 1 17.014-1.271c1.724-.078 1.733-2.736 0-2.658-5.685.256-11.355.68-17.014 1.272-1.703.178-1.722 2.837 0 2.657" fill="#231F20"/><path d="M18.254 4.91c.582 3.032.245 6.325.16 9.4a406 406 0 0 1-.385 9.548c-.092 1.808 2.525 1.803 2.618 0 .181-3.534.324-7.07.412-10.61.075-3.026.292-6.101-.281-9.085-.34-1.771-2.863-1.021-2.524.748M6.67 13.362l5.119 5.146c1.237 1.243 3.157-.686 1.92-1.93l-5.12-5.146c-1.237-1.244-3.157.686-1.92 1.93" fill="#231F20"/><g transform="translate(10.973)"><mask id="md" fill="#fff"><use xlink:href="#mc"/></mask><path d="M2.473 17.975L17.28 2.9c1.245-1.267-.686-3.234-1.932-1.966L.541 16.009c-1.244 1.267.687 3.234 1.932 1.966" fill="#231F20" mask="url(#md)"/></g></g></symbol><symbol viewBox="0 0 42 29" id="illustration-coins" xmlns="http://www.w3.org/2000/svg"><defs><path id="na" d="M.004.425h19.245v6.692H.004z"/><path id="nc" d="M19.044 29h22.518V.433H0V29h19.044v-4.644H0V29h19.044z"/><path id="ne" d="M19.368 4.833H.118V.448h19.25z"/></defs><g fill="none" fill-rule="evenodd"><mask id="nb" fill="#fff"><use xlink:href="#na"/></mask><path d="M9.626 2.656c3.781 0 6.227.641 7.11 1.115-.883.474-3.329 1.115-7.11 1.115-3.78 0-6.226-.64-7.11-1.115.884-.474 3.33-1.115 7.11-1.115m0 4.461c1.608 0 9.623-.162 9.623-3.346S11.234.425 9.626.425C8.02.425.004.587.004 3.77s8.015 3.346 9.622 3.346" fill="#020303" mask="url(#nb)"/><path d="M18.117 18.77c-.561-.006-1.042.378-1.132.903-.498.451-3.085 1.246-7.359 1.246-4.273 0-6.877-.805-7.358-1.246-.05-.593-.597-1.036-1.223-.988-.625.047-1.091.567-1.041 1.16 0 3.067 8.015 3.222 9.622 3.222 1.608 0 9.623-.155 9.623-3.222 0-.593-.507-1.074-1.132-1.074m0-10.511c-.561-.008-1.042.376-1.132.902-.498.45-3.085 1.246-7.359 1.246-4.273 0-6.877-.806-7.358-1.246-.05-.593-.597-1.036-1.223-.989-.625.048-1.091.568-1.041 1.16 0 3.067 8.015 3.223 9.622 3.223 1.608 0 9.623-.156 9.623-3.223 0-.592-.507-1.074-1.132-1.074m0 5.116c-.561-.007-1.042.377-1.132.902-.498.451-3.085 1.246-7.359 1.246-4.273 0-6.877-.805-7.358-1.246-.05-.593-.597-1.035-1.223-.988-.625.048-1.091.567-1.041 1.16 0 3.066 8.015 3.222 9.622 3.222 1.608 0 9.623-.156 9.623-3.222 0-.593-.507-1.074-1.132-1.074" fill="#020303"/><mask id="nd" fill="#fff"><use xlink:href="#nc"/></mask><path d="M17.924 24.451a1.125 1.125 0 0 0-1.12.955c-.493.478-3.052 1.32-7.28 1.32s-6.804-.853-7.28-1.32a1.128 1.128 0 0 0-1.21-1.046c-.619.05-1.08.6-1.03 1.228 0 3.247 7.93 3.412 9.52 3.412 1.59 0 9.52-.165 9.52-3.412a1.13 1.13 0 0 0-1.12-1.137" fill="#020303" mask="url(#nd)"/><path d="M31.698 14.231c3.737 0 6.153.618 7.026 1.075-.873.456-3.29 1.074-7.026 1.074-3.737 0-6.153-.618-7.026-1.074.873-.457 3.29-1.075 7.026-1.075m0 4.297c1.589 0 9.51-.156 9.51-3.222 0-3.067-7.921-3.223-9.51-3.223-1.589 0-9.51.156-9.51 3.223 0 3.066 7.921 3.222 9.51 3.222m8.391.904c-.554-.008-1.03.415-1.119.994-.492.497-3.048 1.373-7.27 1.373-4.223 0-6.795-.887-7.27-1.373-.05-.654-.59-1.141-1.209-1.089-.617.052-1.078.625-1.029 1.279 0 3.379 7.92 3.55 9.508 3.55 1.588 0 9.508-.171 9.508-3.55 0-.654-.501-1.184-1.119-1.184" fill="#020303"/><g transform="translate(22.189 24.167)"><mask id="nf" fill="#fff"><use xlink:href="#ne"/></mask><path d="M18.236.537c-.561-.007-1.042.377-1.132.902-.498.451-3.085 1.246-7.359 1.246-4.273 0-6.877-.805-7.358-1.246C2.337.846 1.789.403 1.164.451.539.498.073 1.018.122 1.611c0 3.067 8.016 3.222 9.623 3.222 1.608 0 9.623-.155 9.623-3.222 0-.593-.507-1.074-1.132-1.074" fill="#020303" mask="url(#nf)"/></g></g></symbol><symbol viewBox="0 0 29 30" id="illustration-cross" xmlns="http://www.w3.org/2000/svg"><path d="M27 12.336v5.328c0 .922-.719 1.67-1.605 1.67h-5.833c-.495 0-.895.416-.895.93v6.067c0 .922-.718 1.669-1.605 1.669h-5.124c-.886 0-1.604-.747-1.604-1.67v-6.066c0-.514-.4-.93-.896-.93H3.605c-.886 0-1.605-.748-1.605-1.67v-5.328c0-.922.719-1.67 1.605-1.67h5.833c.495 0 .896-.416.896-.93V3.668c0-.922.718-1.669 1.604-1.669h5.124c.887 0 1.605.747 1.605 1.67v6.065c0 .515.4.931.895.931h5.833c.886 0 1.605.748 1.605 1.67z" stroke="#231F20" stroke-width="2.4" fill="none"/></symbol><symbol viewBox="0 0 34 28" id="illustration-flag" xmlns="http://www.w3.org/2000/svg"><defs><path id="pa" d="M17.875.398v5.6H.077v-5.6h17.798z"/><path id="pc" d="M17.875.398v5.6H.077v-5.6h17.798z"/></defs><g fill="none" fill-rule="evenodd"><path d="M1.59 5.123c2.616-1.987 5.855-3.38 9.108-2.562 2.781.7 5.093 2.71 7.942 3.37 5.134 1.192 10.532.089 14.866-3.051 1.161-.842.063-2.862-1.11-2.012-5.174 3.75-11.733 4.214-17.319 1.194C12.774.816 10.637-.178 7.98.027 5.238.237 2.693 1.43.48 3.11-.659 3.977.438 6 1.591 5.123" fill="#231F20"/><g transform="translate(15.814 8)"><mask id="pb" fill="#fff"><use xlink:href="#pa"/></mask><path d="M.855 5.137c5.625 1.724 11.657.852 16.52-2.566 1.173-.823.065-2.805-1.119-1.973-4.402 3.093-9.711 3.898-14.812 2.335-1.37-.42-1.956 1.785-.59 2.204" fill="#231F20" mask="url(#pb)"/></g><path d="M1.59 19.523c2.616-1.987 5.855-3.38 9.108-2.562 2.781.7 5.093 2.71 7.942 3.37 5.134 1.191 10.532.089 14.866-3.052 1.161-.841.063-2.861-1.11-2.011-5.174 3.749-11.733 4.214-17.319 1.194-2.303-1.246-4.44-2.24-7.097-2.035-2.742.21-5.287 1.403-7.499 3.084-1.14.866-.043 2.888 1.11 2.012m-.001 7.2c2.616-1.987 5.855-3.38 9.108-2.562 2.781.7 5.093 2.71 7.942 3.37 5.134 1.191 10.532.089 14.866-3.051 1.161-.842.063-2.862-1.11-2.012-5.174 3.749-11.733 4.214-17.319 1.194-2.303-1.246-4.44-2.24-7.097-2.035-2.742.211-5.287 1.403-7.499 3.084-1.14.866-.043 2.888 1.11 2.012" fill="#231F20"/><path d="M15.814 5.054v12.292c0 1.404 2.372 1.406 2.372 0V5.054c0-1.404-2.372-1.407-2.372 0M0 4.288v13.824c0 1.45 2.372 1.452 2.372 0V4.288c0-1.45-2.372-1.452-2.372 0" fill="#231F20"/><path d="M1.59 5.123c2.616-1.987 5.855-3.38 9.108-2.562 2.781.7 5.093 2.71 7.942 3.37 5.134 1.192 10.532.089 14.866-3.051 1.161-.842.063-2.862-1.11-2.012-5.174 3.75-11.733 4.214-17.319 1.194C12.774.816 10.637-.178 7.98.027 5.238.237 2.693 1.43.48 3.11-.659 3.977.438 6 1.591 5.123" fill="#231F20"/><g transform="translate(15.814 8)"><mask id="pd" fill="#fff"><use xlink:href="#pc"/></mask><path d="M.855 5.137c5.625 1.724 11.657.852 16.52-2.566 1.173-.823.065-2.805-1.119-1.973-4.402 3.093-9.711 3.898-14.812 2.335-1.37-.42-1.956 1.785-.59 2.204" fill="#231F20" mask="url(#pd)"/></g><path d="M1.59 19.523c2.616-1.987 5.855-3.38 9.108-2.562 2.781.7 5.093 2.71 7.942 3.37 5.134 1.191 10.532.089 14.866-3.052 1.161-.841.063-2.861-1.11-2.011-5.174 3.749-11.733 4.214-17.319 1.194-2.303-1.246-4.44-2.24-7.097-2.035-2.742.21-5.287 1.403-7.499 3.084-1.14.866-.043 2.888 1.11 2.012m-.001 7.2c2.616-1.987 5.855-3.38 9.108-2.562 2.781.7 5.093 2.71 7.942 3.37 5.134 1.191 10.532.089 14.866-3.051 1.161-.842.063-2.862-1.11-2.012-5.174 3.749-11.733 4.214-17.319 1.194-2.303-1.246-4.44-2.24-7.097-2.035-2.742.211-5.287 1.403-7.499 3.084-1.14.866-.043 2.888 1.11 2.012" fill="#231F20"/><path d="M15.814 5.054v12.292c0 1.404 2.372 1.406 2.372 0V5.054c0-1.404-2.372-1.407-2.372 0" fill="#231F20"/></g></symbol><symbol viewBox="0 0 14 14" id="instagram" xmlns="http://www.w3.org/2000/svg"><path d="M12.5 12.076c0 .215-.228.424-.444.424H2.026c-.216 0-.526-.21-.526-.424V6h1.442c-.098.5-.15.733-.15 1.121a4.249 4.249 0 0 0 4.249 4.24 4.25 4.25 0 0 0 4.25-4.24c0-.388-.053-.62-.151-1.12h1.36v6.075zM7.04 4.44c1.485 0 2.687 1.2 2.687 2.68 0 1.48-1.202 2.68-2.686 2.68a2.684 2.684 0 0 1-2.687-2.68c0-1.48 1.203-2.68 2.687-2.68zM12.02 2a.48.48 0 0 1 .48.48v1.54a.48.48 0 0 1-.48.48h-1.54a.48.48 0 0 1-.48-.48V2.48a.48.48 0 0 1 .48-.48h1.54zm.329-2H1.7C.783 0 0 .862 0 1.776v10.657C0 13.347.783 14 1.7 14h10.65c.917 0 1.651-.653 1.651-1.567V1.776C14 .862 13.266 0 12.349 0z" fill-rule="evenodd"/></symbol><symbol viewBox="0 0 14 14" id="link" xmlns="http://www.w3.org/2000/svg"><path d="M.927 8.584a3.18 3.18 0 0 0 0 4.489 3.18 3.18 0 0 0 4.489 0l2.64-2.64a3.178 3.178 0 0 0 .157-4.324.561.561 0 1 0-.846.738 2.035 2.035 0 0 1-.103 2.793l-2.64 2.64a2.037 2.037 0 0 1-2.905 0 2.037 2.037 0 0 1 0-2.904l2.64-2.64a.56.56 0 1 0-.791-.792l-2.64 2.64zm5.017-5.016a3.178 3.178 0 0 0-.157 4.323.561.561 0 0 0 .846-.738 2.035 2.035 0 0 1 .103-2.793l2.64-2.64a2.037 2.037 0 0 1 2.905 0 2.037 2.037 0 0 1 0 2.904l-2.64 2.64a.56.56 0 1 0 .791.792l2.64-2.64a3.18 3.18 0 0 0 0-4.489 3.18 3.18 0 0 0-4.488 0l-2.64 2.64z"/></symbol><symbol viewBox="0 0 14 10" id="mail" xmlns="http://www.w3.org/2000/svg"><path d="M1.432 0C.647 0 0 .656 0 1.452v7.096C0 9.344.647 10 1.432 10h11.136C13.353 10 14 9.344 14 8.548V1.452C14 .656 13.353 0 12.568 0H1.432zm.042 1h11.052c.27 0 .474.206.474.48v7.04c0 .274-.203.48-.474.48H1.474A.466.466 0 0 1 1 8.52V1.48c0-.274.203-.48.474-.48zm9.764 1.138l-3.93 3.834a.429.429 0 0 1-.632 0l-3.92-3.834a.433.433 0 0 0-.326-.128.45.45 0 0 0-.403.31.491.491 0 0 0 .12.512l2.285 2.234-2.276 2.102a.49.49 0 0 0-.146.45.467.467 0 0 0 .296.357.43.43 0 0 0 .44-.094l2.347-2.17.978.955a1.311 1.311 0 0 0 1.843.005l.982-.96 2.35 2.17a.43.43 0 0 0 .442.094.467.467 0 0 0 .296-.358.49.49 0 0 0-.146-.45l-2.28-2.1 2.285-2.235a.49.49 0 0 0 .126-.534.447.447 0 0 0-.438-.297.436.436 0 0 0-.293.137z"/></symbol><symbol viewBox="0 0 84 84" id="play" xmlns="http://www.w3.org/2000/svg"><g fill="none" fill-rule="evenodd"><circle fill="#FFF" cx="42" cy="42" r="42"/><path d="M29 24.75v33.5c0 2.169 2.407 3.48 4.241 2.315l26.48-16.748a2.733 2.733 0 0 0 0-4.63L33.24 22.433C31.407 21.27 29 22.585 29 24.75l11.191 16.633" fill="#00ABFF"/></g></symbol><symbol viewBox="0 0 14 15" id="times" xmlns="http://www.w3.org/2000/svg"><path d="M7.047 8.626l-6.002 6.002-.96-.96 6.002-6.002L.085 1.664l.96-.96 6.002 6.002L13.049.704l.96.96-6.002 6.002 6.002 6.002-.96.96-6.002-6.002z"/></symbol><symbol viewBox="0 0 14 12" id="twitter" xmlns="http://www.w3.org/2000/svg"><path d="M12.575 3.203c0-.124 0-.248-.008-.371A5.844 5.844 0 0 0 14 1.345a5.733 5.733 0 0 1-1.65.452A2.882 2.882 0 0 0 13.613.208a5.77 5.77 0 0 1-1.824.698 2.875 2.875 0 0 0-4.895 2.62A8.155 8.155 0 0 1 .974.523a2.874 2.874 0 0 0 .89 3.834 2.851 2.851 0 0 1-1.304-.36v.037c0 1.368.964 2.545 2.304 2.816a2.868 2.868 0 0 1-1.297.05 2.876 2.876 0 0 0 2.684 1.994A5.764 5.764 0 0 1 0 10.085a8.132 8.132 0 0 0 4.403 1.289c5.283.002 8.172-4.375 8.172-8.17z"/></symbol></svg>