<svg width="42" height="57" xmlns="http://www.w3.org/2000/svg"><g fill="#2F9FF9" fill-rule="evenodd"><path d="M7.914 53.67c.46-2.51.978-5.004 1.498-7.502.337-1.621.86-3.225.216-4.835-.76-1.898-2.714-3.068-3.826-4.755-1.831-2.778-3.167-6.716-.737-9.538 3.277-3.803 9.734-5.172 14.502-5.191 1.445-.006 9.865.386 5.678 3.904-1.28 1.076-6.471.963-8.068 1.187-2.356.332-1.354 3.879.986 3.55 4.09-.575 15.38-.839 12.317-8.034-2.55-5.993-13.366-4.648-18.275-3.311C6.354 20.738-.687 24.567.054 31.448.399 34.65 1.837 37.707 3.9 40.17c1.743 2.08 2.425 2.735 1.797 5.643a225.73 225.73 0 0 0-1.364 6.88c-.424 2.316 3.153 3.31 3.58.978"/><path d="M9.439 21.694c-.928-4.665-2.158-10.738 1.59-14.567 2.76-2.82 2.983 1.665 3.139 3.625.227 2.861.095 5.554-.837 8.29-.766 2.248 2.78 3.213 3.542.978 1.294-3.796 3.042-20.005-4.825-17.818-8.606 2.392-7.445 13.96-6.151 20.471.461 2.324 4.002 1.34 3.542-.98"/><path d="M17.523 8.101c.284-.862 1.005-2.978 1.953-3.462 3.336-1.7 2.746 2.793 2.662 3.955-.216 2.992-.976 5.869-2.147 8.61-.91 2.13 2.146 3.99 3.063 1.843 1.894-4.435 4.905-13.187 1.156-17.43-4.059-4.597-8.846 1.681-10.108 5.514-.733 2.23 2.691 3.186 3.42.97"/><path d="M26.7 7.37c.004-1.11 1.76-3.686 3.14-2.945.782.42.311 4.946.21 5.811a17.051 17.051 0 0 1-1.575 5.46c-.4.843-1.332 3.365-2.085 3.857l2.718 1.106a6.759 6.759 0 0 1-.023-.12c-.43.76-.861 1.518-1.292 2.277l.086-.016c2.337-.442 1.347-4.01-.984-3.57l-.086.017c-1.036.196-1.466 1.361-1.292 2.276l.023.12c.219 1.146 1.772 1.723 2.717 1.106 2.517-1.645 4.196-6.362 4.954-9.189.893-3.33 1.24-7.867-.105-11.13C30.602-3.649 23.015 3.075 23 7.37c-.009 2.383 3.691 2.386 3.7 0"/><path d="M34.142 11.964c.572-1.155 1.082-2.89 1.996-3.814 1.08-1.094 2.3-.696 1.993 1.09-.152.892-.38 1.773-.637 2.64-.573 1.93-1.393 3.772-2.509 5.456-.326.491-1.503 2.612-2.347 2.578-1.346-.055-.97-.636-.851-1.762.246-2.362-3.491-2.345-3.735 0-.384 3.678 1.365 7.176 5.691 5.347 4.141-1.75 6.418-7.177 7.508-11.159.825-3.015 1.866-8.153-2.35-9.186-4.456-1.09-6.457 3.86-7.984 6.946-1.052 2.127 2.169 4.002 3.225 1.864"/><path d="M33.414 22.315c-1.117 7.67-4.972 20.525-14.079 22.151-2.337.417-1.348 3.916.982 3.5 10.5-1.874 15.358-15.733 16.661-24.686.333-2.285-3.228-3.272-3.564-.965"/><path d="M21.381 44.762a324.591 324.591 0 0 1-1.355 9.911c-.356 2.333 3.115 3.338 3.473.986a357.529 357.529 0 0 0 1.485-10.897c.286-2.36-3.32-2.339-3.603 0"/></g></svg>