<svg width="51" height="53" xmlns="http://www.w3.org/2000/svg"><g fill="#2F9FF9" fill-rule="evenodd"><path d="M2.008 5.998l45.984-1.956c2.67-.114 2.685-4.154 0-4.04L2.008 1.958c-2.67.114-2.685 4.154 0 4.04m4.621 29.966a380.123 380.123 0 0 1 42.354-4.829c2.68-.155 2.698-4.286 0-4.13A390.185 390.185 0 0 0 5.515 31.98c-2.653.455-1.528 4.436 1.114 3.983"/><path d="M.245 4.95c.458.887 1.444 1.19 2.346.992C3.57 5.73 4.23 4.496 3.925 3.53c-.334-1.061-1.3-1.599-2.35-1.37l-.056.013h1.015l-.057-.015.456.198-.047-.036.685.704a1.4 1.4 0 0 0-.027-.053C3.074 2.063 1.772 1.71.93 2.267.032 2.862-.257 3.98.245 4.951"/><path d="M.028 5.616C1.52 15.553 2.522 25.58 4.086 35.492c.416 2.64 4.297 1.52 3.883-1.107-1.563-9.91-2.567-19.942-4.058-29.877C3.515 1.866-.366 2.988.028 5.616M47 3.074c.009 9.285.187 18.567.195 27.851a1.91 1.91 0 0 0 3.805 0c-.009-9.284-.187-18.566-.195-27.85a1.91 1.91 0 0 0-3.805 0M25.013 31.952a374.202 374.202 0 0 1 1.5 18.082c.153 2.613 4.637 2.63 4.483 0a374.202 374.202 0 0 0-1.5-18.082c-.278-2.59-4.764-2.616-4.483 0"/><path d="M28.151 52.995c1.71.029 3.548-.063 5.22-.365 1.176-.213 1.862-1.356 1.556-2.285-.334-1.012-1.56-1.51-2.74-1.296-.139.025-.277.042-.417.064.578-.09-.084.004-.167.012-.415.036-.83.064-1.245.088a29.58 29.58 0 0 1-2.207.068c-2.868-.05-2.868 3.664 0 3.714"/><path d="M30.008 31.049c.517 6.615 1.052 13.245.967 19.888-.034 2.75 3.982 2.751 4.016 0 .084-6.643-.45-13.273-.967-19.888-.212-2.72-4.23-2.744-4.016 0M12.581 14.967a196.68 196.68 0 0 1 26.435-2.683c2.64-.09 2.651-4.373 0-4.283a204.852 204.852 0 0 0-27.528 2.836c-2.606.446-1.5 4.573 1.093 4.13m1.001 8.011a401.991 401.991 0 0 1 27.441-2.8c2.626-.18 2.646-4.353 0-4.172a417.598 417.598 0 0 0-28.534 2.949c-2.61.359-1.498 4.379 1.093 4.023"/></g></svg>