<svg width="42" height="53" xmlns="http://www.w3.org/2000/svg"><g fill="none" fill-rule="evenodd"><path d="M36.786 49.463l-29.93 1.045c-1.671.059-3.071-1.225-3.129-2.868L2.295 6.615c-.058-1.641 1.25-3.02 2.92-3.078l29.93-1.045c1.67-.059 3.07 1.225 3.128 2.867l1.432 41.025c.058 1.642-1.25 3.02-2.919 3.08z" stroke="#2F9FF9" stroke-width="4"/><path d="M12.363 16.295l17.541-.612c2.295-.08 2.16-4.078-.14-3.998l-17.54.613c-2.297.08-2.16 4.078.139 3.997m.314 8.995l17.54-.613c2.297-.08 2.16-4.078-.139-3.997l-17.54.612c-2.296.08-2.16 4.078.139 3.998m1.353 8.958l12.466-.435c2.347-.082 2.211-4.08-.14-3.998l-12.466.435c-2.348.082-2.212 4.08.14 3.998" fill="#2F9FF9"/></g></svg>