<svg width="180" height="86" xmlns="http://www.w3.org/2000/svg" xmlns:xlink="http://www.w3.org/1999/xlink"><defs><path id="a" d="M0 85.888h179.866V.216H0z"/></defs><g fill="none" fill-rule="evenodd"><path fill="#00ABFF" d="M115.868 64.011h64.011V0h-64.01z"/><path d="M128.664 29.488c.029-2.694.44-4.717 1.221-6.01.752-1.245 1.887-1.85 3.47-1.85 1.594 0 2.735.629 3.488 1.92.783 1.346 1.18 3.455 1.18 6.271v5.591c-.014 2.648-.416 4.616-1.195 5.849-.75 1.189-1.873 1.767-3.43 1.767-1.615 0-2.773-.592-3.539-1.81-.793-1.262-1.195-3.282-1.195-6.005v-5.723zm4.69-14.107c-3.741 0-6.711 1.303-8.826 3.871-2.096 2.546-3.159 6.116-3.159 10.611v5.503c.03 4.34 1.118 7.77 3.232 10.2 2.13 2.445 5.09 3.685 8.798 3.685 3.724 0 6.68-1.252 8.789-3.722 2.091-2.45 3.152-5.922 3.152-10.318v-5.502c-.03-4.485-1.116-8.026-3.228-10.527-2.13-2.522-5.076-3.8-8.757-3.8zm39.839.442h-6.867v19.645l-8.733-19.406-.107-.239h-7.152V48.81h7.296V29.19l8.71 19.381.108.24h7.15V15.822z" fill="#000"/><mask id="b" fill="#fff"><use xlink:href="#a"/></mask><path fill="#FFF" mask="url(#b)" d="M61.101 79.726h61.79v-64.01h-61.79z"/><path fill="#000" mask="url(#b)" d="M92.865 30.788h-7.557l-.072.314-5.009 21.629-4.988-21.629-.073-.314h-8.05l.148.518 9.198 32.174.084.294h7.36l.084-.293 9.264-32.175.15-.518zm23.3 26.782h-11.55v-7.718h10.102v-6.048h-10.102v-6.79h11.911v-6.227H97.32v32.986h19.25V57.57z"/><path fill="#FFF" mask="url(#b)" d="M0 85.928h71.424V21.917H0z"/><path fill="#000" mask="url(#b)" d="M36.226 36.99h-8.783l-.079.303-5.652 21.763-5.674-21.764-.079-.303H6.772v32.986h7.294v-9.112l-.445-10.049 5.475 18.869.084.292h5.02l.085-.292 5.475-18.868-.445 10.03v9.13h7.316V36.99zm13.682 25.391c-.793-1.261-1.195-3.28-1.195-6.004v-5.723c.028-2.694.439-4.717 1.22-6.01.752-1.245 1.887-1.85 3.47-1.85 1.595 0 2.736.629 3.488 1.92.783 1.346 1.18 3.455 1.18 6.271v5.59c-.014 2.649-.416 4.618-1.194 5.85-.751 1.189-1.873 1.767-3.43 1.767-1.616 0-2.773-.592-3.54-1.81M62.16 40.347c-2.13-2.522-5.076-3.8-8.757-3.8-3.742 0-6.711 1.302-8.826 3.87-2.096 2.546-3.159 6.116-3.159 10.612v5.502c.03 4.34 1.117 7.77 3.232 10.2 2.13 2.445 5.09 3.685 8.797 3.685 3.725 0 6.682-1.252 8.79-3.722 2.09-2.45 3.151-5.922 3.151-10.318v-5.502c-.03-4.485-1.116-8.026-3.228-10.527"/></g></svg>