<svg xmlns="http://www.w3.org/2000/svg" xmlns:xlink="http://www.w3.org/1999/xlink" width="0" height="0" style="position:absolute">
	
		<symbol id="burger" viewBox="">
			<path d="M0 12h18v-2H0v2zm0-5h18V5H0v2zm0-7v2h18V0H0z"></path>
		</symbol>
	
		<symbol id="caret-down" viewBox="">
			<path d="M10.6.6L6 5.2 1.4.6 0 2l6 6 6-6z"></path>
		</symbol>
	
		<symbol id="caret-right" viewBox="">
			<path d="M.6 1.4L2 0l6 6-6 6-1.4-1.4L5.2 6z"></path>
		</symbol>
	
		<symbol id="close" viewBox="">
			<path d="M14 1.4L12.6 0 7 5.6 1.4 0 0 1.4 5.6 7 0 12.6 1.4 14 7 8.4l5.6 5.6 1.4-1.4L8.4 7z"></path>
		</symbol>
	
		<symbol id="document-add" viewBox="">
			<path d="M0 2h2v17H0zm13 6h2v12h-2z"></path><path d="M0 2h9v2H0zm11 0h6v2h-6z"></path><path d="M13 0h2v6h-2zM4 6h7v2H4zm0 4h7v2H4zm0 4h4v2H4zm-4 4h15v2H0z"></path>
		</symbol>
	
		<symbol id="illustration-checkbox" viewBox="">
			<defs><path id="a" d="M0 22.022V.246h3.135v21.776z"></path><path id="c" d="M.14.525h17.542v17.86H.139z"></path></defs><g fill="none" fill-rule="evenodd"><path d="M1.296 25.99a88.514 88.514 0 0 1 17.779-.225c1.743.154 1.732-2.422 0-2.574a88.513 88.513 0 0 0-17.779.224c-1.718.195-1.738 2.771 0 2.574" fill="#231F20"></path><g transform="translate(0 3.94)"><mask id="b" fill="#fff"><use xlink:href="#a"></use></mask><path d="M0 1.612v19.044c0 1.82 3.135 1.822 3.135 0V1.612C3.135-.208 0-.211 0 1.612" fill="#231F20" mask="url(#b)"></path></g><path d="M2.068 7.082a288.517 288.517 0 0 1 17.014-1.271c1.724-.078 1.733-2.736 0-2.658-5.685.256-11.355.68-17.014 1.272-1.703.178-1.722 2.837 0 2.657" fill="#231F20"></path><path d="M18.254 4.91c.582 3.032.245 6.325.16 9.4a406 406 0 0 1-.385 9.548c-.092 1.808 2.525 1.803 2.618 0 .181-3.534.324-7.07.412-10.61.075-3.026.292-6.101-.281-9.085-.34-1.771-2.863-1.021-2.524.748M6.67 13.362l5.119 5.146c1.237 1.243 3.157-.686 1.92-1.93l-5.12-5.146c-1.237-1.244-3.157.686-1.92 1.93" fill="#231F20"></path><g transform="translate(10.973)"><mask id="d" fill="#fff"><use xlink:href="#c"></use></mask><path d="M2.473 17.975L17.28 2.9c1.245-1.267-.686-3.234-1.932-1.966L.541 16.009c-1.244 1.267.687 3.234 1.932 1.966" fill="#231F20" mask="url(#d)"></path></g></g>
		</symbol>
	
		<symbol id="illustration-coins" viewBox="">
			<defs><path id="a" d="M.004.425h19.245v6.692H.004z"></path><path id="c" d="M19.044 29h22.518V.433H0V29h19.044v-4.644H0V29h19.044z"></path><path id="e" d="M19.368 4.833H.118V.448h19.25z"></path></defs><g fill="none" fill-rule="evenodd"><mask id="b" fill="#fff"><use xlink:href="#a"></use></mask><path d="M9.626 2.656c3.781 0 6.227.641 7.11 1.115-.883.474-3.329 1.115-7.11 1.115-3.78 0-6.226-.64-7.11-1.115.884-.474 3.33-1.115 7.11-1.115m0 4.461c1.608 0 9.623-.162 9.623-3.346S11.234.425 9.626.425C8.02.425.004.587.004 3.77s8.015 3.346 9.622 3.346" fill="#020303" mask="url(#b)"></path><path d="M18.117 18.77c-.561-.006-1.042.378-1.132.903-.498.451-3.085 1.246-7.359 1.246-4.273 0-6.877-.805-7.358-1.246-.05-.593-.597-1.036-1.223-.988-.625.047-1.091.567-1.041 1.16 0 3.067 8.015 3.222 9.622 3.222 1.608 0 9.623-.155 9.623-3.222 0-.593-.507-1.074-1.132-1.074m0-10.511c-.561-.008-1.042.376-1.132.902-.498.45-3.085 1.246-7.359 1.246-4.273 0-6.877-.806-7.358-1.246-.05-.593-.597-1.036-1.223-.989-.625.048-1.091.568-1.041 1.16 0 3.067 8.015 3.223 9.622 3.223 1.608 0 9.623-.156 9.623-3.223 0-.592-.507-1.074-1.132-1.074m0 5.116c-.561-.007-1.042.377-1.132.902-.498.451-3.085 1.246-7.359 1.246-4.273 0-6.877-.805-7.358-1.246-.05-.593-.597-1.035-1.223-.988-.625.048-1.091.567-1.041 1.16 0 3.066 8.015 3.222 9.622 3.222 1.608 0 9.623-.156 9.623-3.222 0-.593-.507-1.074-1.132-1.074" fill="#020303"></path><mask id="d" fill="#fff"><use xlink:href="#c"></use></mask><path d="M17.924 24.451a1.125 1.125 0 0 0-1.12.955c-.493.478-3.052 1.32-7.28 1.32s-6.804-.853-7.28-1.32a1.128 1.128 0 0 0-1.21-1.046c-.619.05-1.08.6-1.03 1.228 0 3.247 7.93 3.412 9.52 3.412 1.59 0 9.52-.165 9.52-3.412a1.13 1.13 0 0 0-1.12-1.137" fill="#020303" mask="url(#d)"></path><path d="M31.698 14.231c3.737 0 6.153.618 7.026 1.075-.873.456-3.29 1.074-7.026 1.074-3.737 0-6.153-.618-7.026-1.074.873-.457 3.29-1.075 7.026-1.075m0 4.297c1.589 0 9.51-.156 9.51-3.222 0-3.067-7.921-3.223-9.51-3.223-1.589 0-9.51.156-9.51 3.223 0 3.066 7.921 3.222 9.51 3.222m8.391.904c-.554-.008-1.03.415-1.119.994-.492.497-3.048 1.373-7.27 1.373-4.223 0-6.795-.887-7.27-1.373-.05-.654-.59-1.141-1.209-1.089-.617.052-1.078.625-1.029 1.279 0 3.379 7.92 3.55 9.508 3.55 1.588 0 9.508-.171 9.508-3.55 0-.654-.501-1.184-1.119-1.184" fill="#020303"></path><g transform="translate(22.189 24.167)"><mask id="f" fill="#fff"><use xlink:href="#e"></use></mask><path d="M18.236.537c-.561-.007-1.042.377-1.132.902-.498.451-3.085 1.246-7.359 1.246-4.273 0-6.877-.805-7.358-1.246C2.337.846 1.789.403 1.164.451.539.498.073 1.018.122 1.611c0 3.067 8.016 3.222 9.623 3.222 1.608 0 9.623-.155 9.623-3.222 0-.593-.507-1.074-1.132-1.074" fill="#020303" mask="url(#f)"></path></g></g>
		</symbol>
	
		<symbol id="illustration-cross" viewBox="">
			<path d="M27 12.336v5.328c0 .922-.719 1.67-1.605 1.67h-5.833c-.495 0-.895.416-.895.93v6.067c0 .922-.718 1.669-1.605 1.669h-5.124c-.886 0-1.604-.747-1.604-1.67v-6.066c0-.514-.4-.93-.896-.93H3.605c-.886 0-1.605-.748-1.605-1.67v-5.328c0-.922.719-1.67 1.605-1.67h5.833c.495 0 .896-.416.896-.93V3.668c0-.922.718-1.669 1.604-1.669h5.124c.887 0 1.605.747 1.605 1.67v6.065c0 .515.4.931.895.931h5.833c.886 0 1.605.748 1.605 1.67z" stroke="#231F20" stroke-width="2.4" fill="none"></path>
		</symbol>
	
		<symbol id="illustration-flag" viewBox="">
			<defs><path id="a" d="M17.875.398v5.6H.077v-5.6h17.798z"></path><path id="c" d="M17.875.398v5.6H.077v-5.6h17.798z"></path></defs><g fill="none" fill-rule="evenodd"><path d="M1.59 5.123c2.616-1.987 5.855-3.38 9.108-2.562 2.781.7 5.093 2.71 7.942 3.37 5.134 1.192 10.532.089 14.866-3.051 1.161-.842.063-2.862-1.11-2.012-5.174 3.75-11.733 4.214-17.319 1.194C12.774.816 10.637-.178 7.98.027 5.238.237 2.693 1.43.48 3.11-.659 3.977.438 6 1.591 5.123" fill="#231F20"></path><g transform="translate(15.814 8)"><mask id="b" fill="#fff"><use xlink:href="#a"></use></mask><path d="M.855 5.137c5.625 1.724 11.657.852 16.52-2.566 1.173-.823.065-2.805-1.119-1.973-4.402 3.093-9.711 3.898-14.812 2.335-1.37-.42-1.956 1.785-.59 2.204" fill="#231F20" mask="url(#b)"></path></g><path d="M1.59 19.523c2.616-1.987 5.855-3.38 9.108-2.562 2.781.7 5.093 2.71 7.942 3.37 5.134 1.191 10.532.089 14.866-3.052 1.161-.841.063-2.861-1.11-2.011-5.174 3.749-11.733 4.214-17.319 1.194-2.303-1.246-4.44-2.24-7.097-2.035-2.742.21-5.287 1.403-7.499 3.084-1.14.866-.043 2.888 1.11 2.012m-.001 7.2c2.616-1.987 5.855-3.38 9.108-2.562 2.781.7 5.093 2.71 7.942 3.37 5.134 1.191 10.532.089 14.866-3.051 1.161-.842.063-2.862-1.11-2.012-5.174 3.749-11.733 4.214-17.319 1.194-2.303-1.246-4.44-2.24-7.097-2.035-2.742.211-5.287 1.403-7.499 3.084-1.14.866-.043 2.888 1.11 2.012" fill="#231F20"></path><path d="M15.814 5.054v12.292c0 1.404 2.372 1.406 2.372 0V5.054c0-1.404-2.372-1.407-2.372 0M0 4.288v13.824c0 1.45 2.372 1.452 2.372 0V4.288c0-1.45-2.372-1.452-2.372 0" fill="#231F20"></path><path d="M1.59 5.123c2.616-1.987 5.855-3.38 9.108-2.562 2.781.7 5.093 2.71 7.942 3.37 5.134 1.192 10.532.089 14.866-3.051 1.161-.842.063-2.862-1.11-2.012-5.174 3.75-11.733 4.214-17.319 1.194C12.774.816 10.637-.178 7.98.027 5.238.237 2.693 1.43.48 3.11-.659 3.977.438 6 1.591 5.123" fill="#231F20"></path><g transform="translate(15.814 8)"><mask id="d" fill="#fff"><use xlink:href="#c"></use></mask><path d="M.855 5.137c5.625 1.724 11.657.852 16.52-2.566 1.173-.823.065-2.805-1.119-1.973-4.402 3.093-9.711 3.898-14.812 2.335-1.37-.42-1.956 1.785-.59 2.204" fill="#231F20" mask="url(#d)"></path></g><path d="M1.59 19.523c2.616-1.987 5.855-3.38 9.108-2.562 2.781.7 5.093 2.71 7.942 3.37 5.134 1.191 10.532.089 14.866-3.052 1.161-.841.063-2.861-1.11-2.011-5.174 3.749-11.733 4.214-17.319 1.194-2.303-1.246-4.44-2.24-7.097-2.035-2.742.21-5.287 1.403-7.499 3.084-1.14.866-.043 2.888 1.11 2.012m-.001 7.2c2.616-1.987 5.855-3.38 9.108-2.562 2.781.7 5.093 2.71 7.942 3.37 5.134 1.191 10.532.089 14.866-3.051 1.161-.842.063-2.862-1.11-2.012-5.174 3.749-11.733 4.214-17.319 1.194-2.303-1.246-4.44-2.24-7.097-2.035-2.742.211-5.287 1.403-7.499 3.084-1.14.866-.043 2.888 1.11 2.012" fill="#231F20"></path><path d="M15.814 5.054v12.292c0 1.404 2.372 1.406 2.372 0V5.054c0-1.404-2.372-1.407-2.372 0" fill="#231F20"></path></g>
		</symbol>
	
</svg>
