<?xml version="1.0" encoding="UTF-8" standalone="no"?>
<svg width="180px" height="86px" viewBox="0 0 180 86" version="1.1" xmlns="http://www.w3.org/2000/svg" xmlns:xlink="http://www.w3.org/1999/xlink">
    <!-- Generator: Sketch 48.2 (47327) - http://www.bohemiancoding.com/sketch -->
    <title>Page 1 Copy 9</title>
    <desc>Created with Sketch.</desc>
    <defs>
        <polygon id="path-1" points="0 85.8883249 179.866473 85.8883249 179.866473 0.216385315 0 0.216385315"></polygon>
    </defs>
    <g id="Nav/Header/1B/Black/Left" stroke="none" stroke-width="1" fill="none" fill-rule="evenodd" transform="translate(-130.000000, -66.000000)">
        <g id="Page-1-Copy-9" transform="translate(130.000000, 66.000000)">
            <polygon id="Fill-1" fill="#00ABFF" points="115.868212 64.01111 179.879322 64.01111 179.879322 0 115.868212 0"></polygon>
            <g id="Group-13">
                <path d="M128.664223,29.4875703 C128.6928,26.7941834 129.10351,24.7705924 129.885054,23.477163 C130.636693,22.2332249 131.771572,21.6286776 133.354599,21.6286776 C134.949366,21.6286776 136.090448,22.2567499 136.842751,23.5488476 C137.625846,24.8937656 138.022821,27.003245 138.022821,29.8191392 L138.022821,35.4100918 C138.008644,38.0577604 137.606574,40.0263119 136.828352,41.2589314 C136.077378,42.4476081 134.955347,43.0257452 133.398682,43.0257452 C131.78287,43.0257452 130.625174,42.4336263 129.859357,41.2154324 C129.066293,39.9541834 128.664223,37.9341433 128.664223,35.2110174 L128.664223,29.4875703 Z M133.354599,15.3812452 C129.612799,15.3812452 126.643018,16.6837738 124.528106,19.252212 C122.432246,21.7977911 121.369363,25.3678158 121.369363,29.863304 L121.369363,35.3657051 C121.399491,39.7060616 122.486742,43.1367121 124.601432,45.5653321 C126.730742,48.011041 129.690776,49.2512062 133.398682,49.2512062 C137.122982,49.2512062 140.079914,47.9988346 142.187515,45.5291569 C144.279166,43.0781216 145.339612,39.6068573 145.339612,35.2110174 L145.339612,29.7086162 C145.309706,25.2240028 144.223563,21.6832733 142.111753,19.182081 C139.982221,16.6600269 137.035922,15.3812452 133.354599,15.3812452 Z" id="Fill-2" fill="#000000"></path>
                <polygon id="Fill-4" fill="#000000" points="173.193394 15.8232705 166.730587 15.8232705 166.325637 15.8232705 166.325637 16.2289652 166.325637 35.4675061 157.593071 16.0620711 157.485631 15.8232705 157.224009 15.8232705 150.739271 15.8232705 150.334321 15.8232705 150.334321 16.2289652 150.334321 48.403575 150.334321 48.8092697 150.739271 48.8092697 157.224009 48.8092697 157.628959 48.8092697 157.628959 48.403575 157.628959 29.1892249 166.339371 48.5700253 166.446811 48.8092697 166.708655 48.8092697 173.193394 48.8092697 173.598344 48.8092697 173.598344 48.403575 173.598344 16.2289652 173.598344 15.8232705"></polygon>
                <mask id="mask-2" fill="white">
                    <use xlink:href="#path-1"></use>
                </mask>
                <g id="Clip-7"></g>
                <polygon id="Fill-6" fill="#FFFFFF" mask="url(#mask-2)" points="61.1013726 79.7264542 122.891249 79.7264542 122.891249 15.7153441 61.1013726 15.7153441"></polygon>
                <polygon id="Fill-8" fill="#000000" mask="url(#mask-2)" points="92.8648044 30.7879684 85.6301999 30.7879684 85.3083222 30.7879684 85.2356616 31.1020045 80.2269529 52.7305489 75.2386246 31.1024484 75.165964 30.7879684 74.8440864 30.7879684 67.653344 30.7879684 67.1161428 30.7879684 67.2641224 31.3055176 76.4621141 63.4801275 76.5458511 63.7739677 76.8513358 63.7739677 83.6007978 63.7739677 83.905618 63.7739677 83.9897979 63.4807933 93.2540261 31.3061834 93.4033348 30.7879684"></polygon>
                <polygon id="Fill-9" fill="#000000" mask="url(#mask-2)" points="116.165091 57.5708554 104.614934 57.5708554 104.614934 49.8524467 114.312467 49.8524467 114.717417 49.8524467 114.717417 49.446752 114.717417 44.2095616 114.717417 43.8038668 114.312467 43.8038668 104.614934 43.8038668 104.614934 37.0133628 116.121008 37.0133628 116.525958 37.0133628 116.525958 36.60789 116.525958 31.1935965 116.525958 30.7879018 116.121008 30.7879018 97.7252456 30.7879018 97.3202956 30.7879018 97.3202956 31.1935965 97.3202956 63.3684283 97.3202956 63.7739011 97.7252456 63.7739011 116.165091 63.7739011 116.570041 63.7739011 116.570041 63.3684283 116.570041 57.9763282 116.570041 57.5708554"></polygon>
                <polygon id="Fill-10" fill="#FFFFFF" mask="url(#mask-2)" points="0 85.9277244 71.4242747 85.9277244 71.4242747 21.9166143 0 21.9166143"></polygon>
                <polygon id="Fill-11" fill="#000000" mask="url(#mask-2)" points="36.226034 36.9893274 27.756199 36.9893274 27.4429609 36.9893274 27.3640975 37.2927107 21.7116335 59.0557469 16.038346 37.2924887 15.9592612 36.9893274 15.6466876 36.9893274 7.17663113 36.9893274 6.77168113 36.9893274 6.77168113 37.3950221 6.77168113 69.5696319 6.77168113 69.9753266 7.17663113 69.9753266 13.6613693 69.9753266 14.0663193 69.9753266 14.0663193 69.5696319 14.0663193 60.8629527 13.6206085 50.8142406 19.0956299 69.6828181 19.1804745 69.9753266 19.4846301 69.9753266 23.896104 69.9753266 24.200038 69.9753266 24.2848825 69.6828181 29.759904 50.8146845 29.3146362 60.8447541 29.3141932 69.5696319 29.3141932 69.9753266 29.7191432 69.9753266 36.226034 69.9753266 36.630984 69.9753266 36.630984 69.5696319 36.630984 37.3950221 36.630984 36.9893274"></polygon>
                <path d="M49.9077615,62.3814449 C49.1149191,61.119974 48.7128489,59.1001558 48.7128489,56.3770299 L48.7128489,50.6535828 C48.7412043,47.9604179 49.1519139,45.9366049 49.9336801,44.6431755 C50.6853187,43.3994593 51.8201977,42.7946901 53.4030028,42.7946901 C54.9979919,42.7946901 56.1388521,43.4227624 56.8913768,44.7148601 C57.6742506,46.0597781 58.0714472,48.1694794 58.0714472,50.9851517 L58.0714472,56.5758824 C58.057048,59.2237729 57.6551994,61.1925463 56.8767561,62.424722 C56.1257821,63.6138425 55.0039731,64.1917578 53.4473081,64.1917578 C51.8314956,64.1917578 50.6735778,63.5996388 49.9077615,62.3814449 M62.1603789,40.3483154 C60.0306254,37.8260394 57.0843262,36.5474796 53.4030028,36.5474796 C49.6612028,36.5474796 46.6916433,37.8497863 44.5767321,40.4182245 C42.4806507,42.9638036 41.4179892,46.5338284 41.4179892,51.0295384 L41.4179892,56.5319396 C41.4481168,60.8720741 42.5353677,64.3027246 44.6500573,66.7315665 C46.7793677,69.1770535 49.7391801,70.4172187 53.4473081,70.4172187 C57.1716076,70.4172187 60.1285401,69.1648471 62.2361409,66.6951694 C64.3275703,64.244356 65.388238,60.7728698 65.388238,56.3770299 L65.388238,50.8746287 C65.358332,46.3900153 64.2721887,42.8492858 62.1603789,40.3483154" id="Fill-12" fill="#000000" mask="url(#mask-2)"></path>
            </g>
        </g>
    </g>
</svg>