<?xml version="1.0" encoding="UTF-8" standalone="no"?>
<svg width="51px" height="53px" viewBox="0 0 51 53" version="1.1" xmlns="http://www.w3.org/2000/svg" xmlns:xlink="http://www.w3.org/1999/xlink">
    <!-- Generator: Sketch 48.2 (47327) - http://www.bohemiancoding.com/sketch -->
    <title>Group 19</title>
    <desc>Created with Sketch.</desc>
    <defs></defs>
    <g id="320px_Home" stroke="none" stroke-width="1" fill="none" fill-rule="evenodd" transform="translate(-135.000000, -2880.000000)">
        <g id="Group-26" transform="translate(29.000000, 2850.000000)" fill="#2F9FF9">
            <g id="Group-25" transform="translate(42.000000, 30.000000)">
                <g id="Group-19" transform="translate(64.000000, 0.000000)">
                    <path d="M2.00767309,5.99762676 C17.335891,5.34562654 32.664109,4.69362632 47.9923269,4.0416261 C50.6617796,3.9281492 50.6766588,-0.111759594 47.9923269,0.00237324146 C32.664109,0.65437346 17.335891,1.30637368 2.00767309,1.9583739 C-0.661779624,2.0718508 -0.676658762,6.11175959 2.00767309,5.99762676" id="Fill-1"></path>
                    <path d="M6.62886078,35.9641788 C20.6487505,33.5598475 34.7768626,31.955842 48.9825679,31.1353907 C51.6636217,30.9804241 51.6813184,26.8486506 48.9825679,27.0042881 C34.405912,27.8462066 19.9007236,29.5132722 5.51464777,31.9806635 C2.862181,32.4355007 3.98660366,36.4170035 6.62886078,35.9641788" id="Fill-3"></path>
                    <path d="M0.245135469,4.95066034 C0.70295937,5.83670617 1.68932794,6.13927394 2.59132787,5.94244564 C3.56963179,5.72905574 4.22969227,4.49649019 3.92509669,3.53018427 C3.59134431,2.46896762 2.62420683,1.93135247 1.5758025,2.16003 C1.55657141,2.16385191 1.53734033,2.16831081 1.5187296,2.1727697 L2.53363462,2.1727697 C2.51502389,2.16767382 2.4957928,2.16321493 2.47656172,2.15811905 C2.62916969,2.22436547 2.7811573,2.2899749 2.9331449,2.35622132 C2.91763597,2.34411861 2.90150667,2.3320159 2.88599773,2.31991318 L3.57087251,3.02378137 C3.5621875,3.0059458 3.55288214,2.98811022 3.54357677,2.97091163 C3.07458644,2.06320832 1.77245585,1.70968176 0.930010248,2.26704345 C0.0317324578,2.86198723 -0.256733821,3.97989553 0.245135469,4.95066034" id="Fill-5"></path>
                    <path d="M0.0280906966,5.61605846 C1.51912337,15.5529896 2.52230061,25.5785647 4.08592303,35.492489 C4.50184267,38.1328639 8.38310535,37.0122947 7.96914759,34.3854533 C6.40617913,24.4749124 5.40169397,14.4425705 3.91131526,4.50834609 C3.51501447,1.86594118 -0.366248207,2.98854035 0.0280906966,5.61605846" id="Fill-7"></path>
                    <path d="M47.0000012,3.07447566 C47.0086512,12.3590014 47.1865936,21.6414346 47.1952436,30.9252629 C47.197715,33.6894861 51.0030874,33.6936712 50.9999981,30.9252629 C50.9913481,21.6414346 50.8134057,12.3590014 50.8047558,3.07447566 C50.8022843,0.310949929 46.9975298,0.306067375 47.0000012,3.07447566" id="Fill-9"></path>
                    <path d="M25.0126639,31.9524224 C25.659129,37.9706954 26.1592659,43.9962585 26.5130746,50.0344136 C26.6659548,52.6469048 31.1504428,52.6634731 30.9961065,50.0344136 C30.6422979,43.9962585 30.142161,37.9706954 29.4956959,31.9524224 C29.2175994,29.3624641 24.7316554,29.3359548 25.0126639,31.9524224" id="Fill-11"></path>
                    <path d="M28.1513013,52.9949346 C29.8604751,53.0238854 31.6991757,52.9322076 33.3707216,52.6300328 C34.5473163,52.4171231 35.2333014,51.2741663 34.9272131,50.3453254 C34.5929039,49.3326476 33.3663799,48.8356574 32.1861672,49.048567 C32.0479571,49.0738991 31.9097471,49.0913902 31.7700898,49.1125002 C32.3482565,49.0238381 31.6861507,49.1173254 31.6029352,49.1245631 C31.1883049,49.1613549 30.7736747,49.1890995 30.3575973,49.212622 C29.6245773,49.2548421 28.8864921,49.2934433 28.1513013,49.2807773 C25.2828996,49.2319226 25.2828996,52.9454768 28.1513013,52.9949346" id="Fill-13"></path>
                    <path d="M30.0082931,31.0488437 C30.5254306,37.6637903 31.0595234,44.2939963 30.9753989,50.9373809 C30.9408361,53.686846 34.9566404,53.6882332 34.9912032,50.9373809 C35.0753277,44.2939963 34.5412348,37.6637903 34.0240973,31.0488437 C33.8115036,28.3292038 29.7937429,28.3049274 30.0082931,31.0488437" id="Fill-15"></path>
                    <path d="M12.5811029,14.9666901 C21.3349861,13.4694611 30.1496508,12.5890655 39.0157461,12.2844736 C41.6554032,12.1933742 41.6674259,7.91100741 39.0157461,8.00141139 C29.7816217,8.31852072 20.6036033,9.2781937 11.4877024,10.8373146 C8.88210971,11.2830757 9.98753292,15.410365 12.5811029,14.9666901" id="Fill-17"></path>
                    <path d="M13.5820082,22.9776627 C22.6956346,21.7243166 31.8473178,20.8029379 41.023037,20.1776198 C43.6489632,19.9987639 43.6689931,15.8254602 41.023037,16.0056711 C31.4774314,16.6553786 21.9692151,17.6512806 12.4890407,18.9547605 C9.87913852,19.3138272 10.9908006,23.3340195 13.5820082,22.9776627" id="Fill-19"></path>
                </g>
            </g>
        </g>
    </g>
</svg>