<?xml version="1.0" encoding="UTF-8" standalone="no"?>
<svg width="42px" height="53px" viewBox="0 0 42 53" version="1.1" xmlns="http://www.w3.org/2000/svg" xmlns:xlink="http://www.w3.org/1999/xlink">
    <!-- Generator: Sketch 48.2 (47327) - http://www.bohemiancoding.com/sketch -->
    <title>Group 16</title>
    <desc>Created with Sketch.</desc>
    <defs></defs>
    <g id="320px_Home" stroke="none" stroke-width="1" fill="none" fill-rule="evenodd" transform="translate(-139.000000, -2498.000000)">
        <g id="Group-23" transform="translate(29.000000, 2469.000000)">
            <g id="Group-21" transform="translate(42.000000, 31.000000)">
                <g id="Group-16" transform="translate(89.000000, 24.500000) rotate(-2.000000) translate(-89.000000, -24.500000) translate(71.000000, 1.000000)">
                    <path d="M32.975095,47 L3.02583598,47 C1.35464349,47 0,45.667816 0,44.0243313 L0,2.97475308 C0,1.33218398 1.35464349,0 3.02583598,0 L32.975095,0 C34.6453565,0 36,1.33218398 36,2.97475308 L36,44.0243313 C36,45.667816 34.6453565,47 32.975095,47 Z" id="Stroke-1" stroke="#2F9FF9" stroke-width="4"></path>
                    <path d="M9.7242213,13 L27.2761132,13 C29.5723972,13 29.5768595,9 27.2761132,9 L9.7242213,9 C7.42704482,9 7.42347501,13 9.7242213,13" id="Fill-3" fill="#2F9FF9"></path>
                    <path d="M9.72426711,22 L27.2757329,22 C29.5729704,22 29.5765403,18 27.2757329,18 L9.72426711,18 C7.4270296,18 7.42345969,22 9.72426711,22" id="Fill-5" fill="#2F9FF9"></path>
                    <path d="M10.7633144,31 L23.2370277,31 C25.5853752,31 25.5899386,27 23.2370277,27 L10.7633144,27 C8.41405427,27 8.41040351,31 10.7633144,31" id="Fill-7" fill="#2F9FF9"></path>
                </g>
            </g>
        </g>
    </g>
</svg>