<?xml version="1.0" encoding="UTF-8" standalone="no"?>
<svg width="42px" height="57px" viewBox="0 0 42 57" version="1.1" xmlns="http://www.w3.org/2000/svg" xmlns:xlink="http://www.w3.org/1999/xlink">
    <!-- Generator: Sketch 48.2 (47327) - http://www.bohemiancoding.com/sketch -->
    <title>Group 17</title>
    <desc>Created with Sketch.</desc>
    <defs></defs>
    <g id="320px_Home" stroke="none" stroke-width="1" fill="none" fill-rule="evenodd" transform="translate(-139.000000, -2686.000000)">
        <g id="Group-28" transform="translate(29.000000, 2659.000000)" fill="#2F9FF9">
            <g id="Group-24" transform="translate(21.000000, 27.000000)">
                <g id="Group-17" transform="translate(89.000000, 0.000000)">
                    <path d="M7.91401723,53.6703231 C8.3743662,51.1604001 8.89188754,48.6659386 9.41237887,46.1677958 C9.74947311,44.5465431 10.2729344,42.9429607 9.62770338,41.3334882 C8.86738509,39.4354003 6.91387198,38.2654772 5.80160948,36.5779608 C3.9706086,33.8000377 2.6348541,29.8617631 5.06505114,27.0404005 C8.34169627,23.2368621 14.7992043,21.8681478 19.566786,21.849005 C21.0116878,21.8431149 29.4316189,22.2348072 25.2446708,25.7526752 C23.9646037,26.8290928 18.7737978,26.7157082 17.1766839,26.9402686 C14.8207367,27.2715873 15.8231095,30.8189059 18.1634642,30.489796 C22.2538875,29.9147741 33.5420896,29.6511917 30.4800265,22.4556863 C27.9295447,16.4632358 17.1135716,17.8083896 12.2049151,19.1447083 C6.35402824,20.737983 -0.687083432,24.5665544 0.0539299026,31.4484114 C0.399191626,34.6504223 1.83741089,37.7066531 3.90081376,40.1694552 C5.64419984,42.248664 6.3258133,42.9039387 5.69765972,45.8121804 C5.20464082,48.0982793 4.75617183,50.3917408 4.33443278,52.6918287 C3.90972373,55.0081143 7.48708069,56.0013341 7.91401723,53.6703231" id="Fill-1"></path>
                    <path d="M9.43855104,21.6938434 C8.51148386,17.0286855 7.28102623,10.9560957 11.029698,7.12655444 C13.7895961,4.30653244 14.0121804,8.79189275 14.1679159,10.7519812 C14.3949078,13.6132682 14.2634141,16.3058108 13.3312047,19.0410921 C12.5650153,21.2900357 16.1116717,22.2553424 16.8734535,20.0203995 C18.1670869,16.2240176 19.9154386,0.0149703534 12.0478558,2.20201642 C3.44199844,4.59391383 4.60266892,16.162857 5.89703688,22.6731507 C6.35836667,24.9965187 9.89914622,24.0127901 9.43855104,21.6938434" id="Fill-4"></path>
                    <path d="M17.5227176,8.10097086 C17.8065048,7.2390502 18.5280338,5.12329407 19.475883,4.6394216 C22.8118016,2.93820479 22.2215242,7.4317234 22.137807,8.59433103 C21.9221287,11.5858744 21.1622885,14.4628357 19.9909568,17.2047797 C19.0814188,19.3344025 22.1370975,21.1939908 23.0544397,19.0468523 C24.9480098,14.6117195 27.9589921,5.85968522 24.2101631,1.6164958 C20.1512966,-2.97992783 15.3638064,3.2980074 14.1023723,7.13103643 C13.3687823,9.36064491 16.7933845,10.3174425 17.5227176,8.10097086" id="Fill-6"></path>
                    <path d="M26.6999991,7.37039968 C26.7036991,6.25990608 28.4604511,3.68430126 29.8398048,4.42463033 C30.6219812,4.84439691 30.1513433,9.37076882 30.0507038,10.2362135 C29.8257448,12.172174 29.3144072,13.9260136 28.475251,15.6968807 C28.0756528,16.5393752 27.1425171,19.060936 26.3899405,19.5525145 C27.2964364,19.9211983 28.2014522,20.2898822 29.1079481,20.6585661 C29.0998081,20.6185883 29.0924082,20.5793509 29.0850082,20.5393731 C28.6543302,21.2982104 28.2236521,22.0570477 27.7929741,22.815885 C27.821834,22.8107027 27.8499538,22.8055204 27.8788137,22.8003381 C30.215723,22.3576213 29.2256076,18.7892352 26.8953582,19.2304713 C26.8664983,19.2356536 26.8383785,19.2415763 26.8087786,19.2467586 C25.7727833,19.4429458 25.3428453,20.6082237 25.5167445,21.5232704 C25.5248844,21.5632482 25.5322844,21.6024857 25.5404244,21.6424634 C25.7587234,22.7892331 27.3119763,23.3659495 28.256952,22.748515 C30.7744205,21.1042442 32.4534728,16.3868674 33.2112294,13.560291 C34.1036653,10.2295505 34.4507237,5.69281402 33.1061499,2.4294435 C30.6020013,-3.64791781 23.0148159,3.07575077 23.000016,7.37039968 C22.991136,9.75277862 26.6911191,9.75573993 26.6999991,7.37039968" id="Fill-8"></path>
                    <path d="M34.142384,11.963753 C34.7138935,10.8091832 35.2241431,9.07474322 36.1378111,8.14990553 C37.2173289,7.05590823 38.4372961,7.4540612 38.1309969,9.24020938 C37.9785944,10.1318061 37.7514848,11.0130612 37.4937452,11.8795425 C36.9214887,13.8097349 36.1012046,15.6520234 34.9850803,17.3362326 C34.6593573,17.8274603 33.4819731,19.9482342 32.6377827,19.9142546 C31.2915605,19.8588529 31.6688314,19.2775053 31.7868686,18.1517444 C32.0326551,15.7901581 28.2958051,15.8071479 28.0515128,18.1517444 C27.6675183,21.8296732 29.4171589,25.3281007 33.743448,23.4991086 C37.8844635,21.7484175 40.1607893,16.3220136 41.2507661,12.340484 C42.0762797,9.32515853 43.1169499,4.18684308 38.9012273,3.15415691 C34.4449478,2.06311437 32.4435442,7.01454169 30.9172778,10.1000425 C29.8646545,12.226726 33.0860254,14.1015167 34.142384,11.963753" id="Fill-10"></path>
                    <path d="M33.4142915,22.3148055 C32.2973229,29.9856203 28.4415265,42.8404774 19.3350167,44.4663881 C16.997588,44.8830278 17.98741,48.3816394 20.3174464,47.9657256 C30.8166557,46.0915731 35.6748408,32.2328612 36.978094,23.28019 C37.3107452,20.9952047 33.7498995,20.0080446 33.4142915,22.3148055" id="Fill-12"></path>
                    <path d="M21.3809784,44.7620926 C20.9788981,48.0737683 20.5292599,51.3772927 20.0255786,54.6734067 C19.6696151,57.006178 23.1406202,58.0110185 23.4994661,55.6589803 C24.052867,52.0345888 24.5421367,48.4020459 24.9838486,44.7620926 C25.2699165,42.4019031 21.6648846,42.423393 21.3809784,44.7620926" id="Fill-14"></path>
                </g>
            </g>
        </g>
    </g>
</svg>