<?xml version="1.0" encoding="UTF-8" standalone="no"?>
<svg width="14px" height="14px" viewBox="0 0 14 14" version="1.1" xmlns="http://www.w3.org/2000/svg" xmlns:xlink="http://www.w3.org/1999/xlink">
    <!-- Generator: Sketch 48.2 (47327) - http://www.bohemiancoding.com/sketch -->
    <title>Page 1</title>
    <desc>Created with Sketch.</desc>
    <defs>
        <polygon id="path-1" points="0 2.98167276e-15 14 2.98167276e-15 14 14 0 14"></polygon>
    </defs>
    <g id="Icons/Social/Facebook/Black" transform="translate(-5.000000, -5.000000)">
        <g id="Page-1" transform="translate(5.000000, 5.000000)">
            <mask id="mask-2" >
                <use xlink:href="#path-1"></use>
            </mask>
            <g id="Clip-2"></g>
            <path d="M14,13.2273511 C14,13.6538029 13.6538029,14 13.2273511,14 L9.659423,14 L9.659423,8.57834395 L11.4795804,8.57834395 L11.7518172,6.46549269 L9.659423,6.46549269 L9.659423,5.11689771 C9.659423,4.50475834 9.8293743,4.08827276 10.7069314,4.08827276 L11.8257774,4.08774822 L11.8257774,2.1978269 C11.6322218,2.17212439 10.9681529,2.11442488 10.1955039,2.11442488 C8.58201574,2.11442488 7.47785688,3.09898839 7.47785688,4.90760584 L7.47785688,6.46549269 L5.65350318,6.46549269 L5.65350318,8.57834395 L7.47785688,8.57834395 L7.47785688,14 L0.772648932,14 C0.346197078,14 0,13.6538029 0,13.2273511 L0,0.772648932 C0,0.346197078 0.346197078,0 0.772648932,0 L13.2273511,0 C13.6538029,0 14,0.346197078 14,0.772648932 L14,13.2273511 Z" mask="url(#mask-2)"></path>
        </g>
    </g>
</svg>
