<?xml version="1.0" encoding="UTF-8" standalone="no"?>
<svg width="34px" height="28px" viewBox="0 0 34 28" version="1.1" xmlns="http://www.w3.org/2000/svg" xmlns:xlink="http://www.w3.org/1999/xlink">
    <!-- Generator: Sketch 48.2 (47327) - http://www.bohemiancoding.com/sketch -->
    <title>Group 7</title>
    <desc>Created with Sketch.</desc>
    <defs>
        <polygon id="path-1" points="17.8746659 0.398229952 17.8746659 5.99737098 0.0766467608 5.99737098 0.0766467608 0.398229952 17.8746659 0.398229952"></polygon>
        <polygon id="path-3" points="17.8746659 0.398229952 17.8746659 5.99737098 0.0766467608 5.99737098 0.0766467608 0.398229952 17.8746659 0.398229952"></polygon>
    </defs>
    <g id="320px_Home" stroke="none" stroke-width="1" fill="none" fill-rule="evenodd" transform="translate(-211.000000, -1481.000000)">
        <g id="Group-7" transform="translate(228.000000, 1495.000000) rotate(-360.000000) translate(-228.000000, -1495.000000) translate(211.000000, 1481.000000)">
            <path d="M1.59089571,5.12269661 C4.20551457,3.13625419 7.44475637,1.74346122 10.6980742,2.56077767 C13.4794058,3.26020298 15.7913904,5.27087599 18.6395831,5.93162555 C23.7738077,7.12265225 29.1719575,6.01969442 33.506049,2.87950313 C34.6673198,2.03795609 33.5685113,0.017963616 32.3958037,0.867898165 C27.2219903,4.61711603 20.6630095,5.08215697 15.0774728,2.06172071 C12.7742856,0.815709202 10.6369315,-0.177744997 7.97964475,0.0268171009 C5.2383418,0.23790282 2.69322325,1.43032744 0.481090301,3.11109165 C-0.659066508,3.97686928 0.437542645,5.99872564 1.59089571,5.12269661" id="Fill-1" fill="#231F20"></path>
            <g id="Group-5" transform="translate(15.813953, 8.000000)">
                <mask id="mask-2" fill="white">
                    <use xlink:href="#path-1"></use>
                </mask>
                <g id="Clip-4"></g>
                <path d="M0.854611117,5.13696 C6.48030936,6.86084571 12.5118669,5.98861714 17.3755255,2.57147429 C18.5483037,1.74770286 17.4402855,-0.233554286 16.2564183,0.597988571 C11.8536208,3.69101714 6.54462587,4.49558857 1.44410516,2.93307429 C0.0730546795,2.51296 -0.512447306,4.71821714 0.854611117,5.13696" id="Fill-3" fill="#231F20" mask="url(#mask-2)"></path>
            </g>
            <path d="M1.59089571,19.5225476 C4.20551457,17.5361629 7.44475637,16.1434105 10.6980742,16.9611691 C13.4794058,17.6601081 15.7913904,19.6711886 18.6395831,20.3319189 C23.7738077,21.522445 29.1719575,20.4195193 33.506049,17.2794194 C34.6673198,16.4378968 33.5685113,14.4179631 32.3958037,15.2678729 C27.2219903,19.0169817 20.6630095,19.4824751 15.0774728,16.4616607 C12.7742856,15.2156855 10.6369315,14.2222602 7.97964475,14.4268163 C5.2383418,14.6378959 2.69322325,15.8302858 0.481090301,17.5110011 C-0.659066508,18.3767536 0.437542645,20.3985511 1.59089571,19.5225476" id="Fill-6" fill="#231F20"></path>
            <path d="M1.59089571,26.7225388 C4.20551457,24.7361537 7.44475637,23.3434009 10.6980742,24.1611597 C13.4794058,24.8600989 15.7913904,26.8711798 18.6395831,27.5319103 C23.7738077,28.7224367 29.1719575,27.6195107 33.506049,24.479876 C34.6673198,23.6383533 33.5685113,21.6184191 32.3958037,22.4678631 C27.2219903,26.2169728 20.6630095,26.6824663 15.0774728,23.6616512 C12.7742856,22.4161416 10.6369315,21.4222502 7.97964475,21.6268064 C5.2383418,21.8383519 2.69322325,23.0302762 0.481090301,24.7109919 C-0.659066508,25.5772105 0.437542645,27.5985425 1.59089571,26.7225388" id="Fill-8" fill="#231F20"></path>
            <path d="M15.8139535,5.05427763 L15.8139535,17.3458861 C15.8139535,18.7502797 18.1860465,18.7524625 18.1860465,17.3458861 L18.1860465,5.05427763 C18.1860465,3.64988409 15.8139535,3.64726477 15.8139535,5.05427763" id="Fill-10" fill="#231F20"></path>
            <path d="M0,4.28783804 L0,18.112162 C0,19.561261 2.37209302,19.5639637 2.37209302,18.112162 L2.37209302,4.28783804 C2.37209302,2.83873899 0,2.83603628 0,4.28783804" id="Fill-12" fill="#231F20"></path>
            <path d="M1.59089571,5.12269661 C4.20551457,3.13625419 7.44475637,1.74346122 10.6980742,2.56077767 C13.4794058,3.26020298 15.7913904,5.27087599 18.6395831,5.93162555 C23.7738077,7.12265225 29.1719575,6.01969442 33.506049,2.87950313 C34.6673198,2.03795609 33.5685113,0.017963616 32.3958037,0.867898165 C27.2219903,4.61711603 20.6630095,5.08215697 15.0774728,2.06172071 C12.7742856,0.815709202 10.6369315,-0.177744997 7.97964475,0.0268171009 C5.2383418,0.23790282 2.69322325,1.43032744 0.481090301,3.11109165 C-0.659066508,3.97686928 0.437542645,5.99872564 1.59089571,5.12269661" id="Fill-14" fill="#231F20"></path>
            <g id="Group-18" transform="translate(15.813953, 8.000000)">
                <mask id="mask-4" fill="white">
                    <use xlink:href="#path-3"></use>
                </mask>
                <g id="Clip-17"></g>
                <path d="M0.854611117,5.13696 C6.48030936,6.86084571 12.5118669,5.98861714 17.3755255,2.57147429 C18.5483037,1.74770286 17.4402855,-0.233554286 16.2564183,0.597988571 C11.8536208,3.69101714 6.54462587,4.49558857 1.44410516,2.93307429 C0.0730546795,2.51296 -0.512447306,4.71821714 0.854611117,5.13696" id="Fill-16" fill="#231F20" mask="url(#mask-4)"></path>
            </g>
            <path d="M1.59089571,19.5225476 C4.20551457,17.5361629 7.44475637,16.1434105 10.6980742,16.9611691 C13.4794058,17.6601081 15.7913904,19.6711886 18.6395831,20.3319189 C23.7738077,21.522445 29.1719575,20.4195193 33.506049,17.2794194 C34.6673198,16.4378968 33.5685113,14.4179631 32.3958037,15.2678729 C27.2219903,19.0169817 20.6630095,19.4824751 15.0774728,16.4616607 C12.7742856,15.2156855 10.6369315,14.2222602 7.97964475,14.4268163 C5.2383418,14.6378959 2.69322325,15.8302858 0.481090301,17.5110011 C-0.659066508,18.3767536 0.437542645,20.3985511 1.59089571,19.5225476" id="Fill-19" fill="#231F20"></path>
            <path d="M1.59089571,26.7225388 C4.20551457,24.7361537 7.44475637,23.3434009 10.6980742,24.1611597 C13.4794058,24.8600989 15.7913904,26.8711798 18.6395831,27.5319103 C23.7738077,28.7224367 29.1719575,27.6195107 33.506049,24.479876 C34.6673198,23.6383533 33.5685113,21.6184191 32.3958037,22.4678631 C27.2219903,26.2169728 20.6630095,26.6824663 15.0774728,23.6616512 C12.7742856,22.4161416 10.6369315,21.4222502 7.97964475,21.6268064 C5.2383418,21.8383519 2.69322325,23.0302762 0.481090301,24.7109919 C-0.659066508,25.5772105 0.437542645,27.5985425 1.59089571,26.7225388" id="Fill-21" fill="#231F20"></path>
            <path d="M15.8139535,5.05427763 L15.8139535,17.3458861 C15.8139535,18.7502797 18.1860465,18.7524625 18.1860465,17.3458861 L18.1860465,5.05427763 C18.1860465,3.64988409 15.8139535,3.64726477 15.8139535,5.05427763" id="Fill-23" fill="#231F20"></path>
        </g>
    </g>
</svg>