<?xml version="1.0" encoding="UTF-8" standalone="no"?>
<svg width="29px" height="26px" viewBox="0 0 29 26" version="1.1" xmlns="http://www.w3.org/2000/svg" xmlns:xlink="http://www.w3.org/1999/xlink">
    <!-- Generator: Sketch 48.2 (47327) - http://www.bohemiancoding.com/sketch -->
    <title>Group 10</title>
    <desc>Created with Sketch.</desc>
    <defs>
        <polygon id="path-1" points="0 22.0217598 0 0.245890613 3.13500973 0.245890613 3.13500973 22.0217598"></polygon>
        <polygon id="path-3" points="0.139467884 0.525005348 17.6816461 0.525005348 17.6816461 18.3844745 0.139467884 18.3844745"></polygon>
    </defs>
    <g id="320px_Home" stroke="none" stroke-width="1" fill="none" fill-rule="evenodd" transform="translate(-78.000000, -1481.000000)">
        <g id="Group-10" transform="translate(92.500000, 1494.500000) rotate(-360.000000) translate(-92.500000, -1494.500000) translate(78.000000, 1481.000000)">
            <path d="M1.2961706,25.9892436 C7.2147794,25.3178812 13.1399221,25.2432281 19.0748656,25.7652845 C20.8183233,25.9187094 20.8074335,23.3434373 19.0748656,23.1910421 C13.1393776,22.6689857 7.21423491,22.7436388 1.2961706,23.4150012 C-0.421696071,23.6096139 -0.4423867,26.1864306 1.2961706,25.9892436" id="Fill-4" fill="#231F20"></path>
            <g id="Group-8">
                <g id="Group-3" transform="translate(0.000000, 3.939394)">
                    <mask id="mask-2" fill="white">
                        <use xlink:href="#path-1"></use>
                    </mask>
                    <g id="Clip-2"></g>
                    <path d="M-0.000125405405,1.61195152 L-0.000125405405,20.6559111 C-0.000125405405,22.4756283 3.13500973,22.4784566 3.13500973,20.6559111 L3.13500973,1.61195152 C3.13500973,-0.207765657 -0.000125405405,-0.211159596 -0.000125405405,1.61195152" id="Fill-1" fill="#231F20" mask="url(#mask-2)"></path>
                </g>
                <path d="M2.06830393,7.082157 C7.72722219,6.49058173 13.3974346,6.06696493 19.0821681,5.8107751 C20.805874,5.73317403 20.8150169,3.07507167 19.0821681,3.15320425 C13.3974346,3.40939408 7.72722219,3.83301087 2.06830393,4.42458615 C0.365035144,4.60264339 0.346211523,7.2623403 2.06830393,7.082157" id="Fill-6" fill="#231F20"></path>
                <path d="M18.2540213,4.91087112 C18.8356554,7.94166799 18.4990301,11.2345453 18.4136958,14.3103345 C18.3252204,17.4946677 18.1927691,20.6773138 18.02943,23.8577102 C17.9367664,25.6664025 20.5543813,25.6607784 20.6470449,23.8577102 C20.8281839,20.3235615 20.9705821,16.7871631 21.0590575,13.2485151 C21.1344448,10.2222175 21.3506598,7.14699069 20.7779257,4.16287338 C20.4381592,2.39186218 17.9147784,3.14154714 18.2540213,4.91087112" id="Fill-8" fill="#231F20"></path>
                <path d="M6.66979015,13.3617106 C8.3763571,15.0772201 10.0823811,16.7921838 11.788948,18.5076933 C13.0258425,19.7510693 14.9463412,17.8215987 13.7083607,16.5782227 C12.0023368,14.8627132 10.2957698,13.1472037 8.58974584,11.4316942 C7.35230833,10.1883182 5.43235265,12.1177888 6.66979015,13.3617106" id="Fill-10" fill="#231F20"></path>
                <g id="Group-14" transform="translate(10.972973, 0.000000)">
                    <mask id="mask-4" fill="white">
                        <use xlink:href="#path-3"></use>
                    </mask>
                    <g id="Clip-13"></g>
                    <path d="M2.47281646,17.9752599 C7.40839795,12.9498909 12.3439794,7.92507807 17.2795609,2.90026524 C18.5245183,1.63335615 16.5939876,-0.333745455 15.3484839,0.933719786 C10.4129025,5.95908877 5.47732097,10.9839016 0.541193202,16.0087144 C-0.703217936,17.2761797 1.22785905,19.2427251 2.47281646,17.9752599" id="Fill-12" fill="#231F20" mask="url(#mask-4)"></path>
                </g>
            </g>
        </g>
    </g>
</svg>