<?xml version="1.0" encoding="UTF-8" standalone="no"?>
<svg width="29px" height="30px" viewBox="0 0 29 30" version="1.1" xmlns="http://www.w3.org/2000/svg" xmlns:xlink="http://www.w3.org/1999/xlink">
    <!-- Generator: Sketch 48.2 (47327) - http://www.bohemiancoding.com/sketch -->
    <title>Page 1</title>
    <desc>Created with Sketch.</desc>
    <defs></defs>
    <g id="320px_Home" stroke="none" stroke-width="1" fill="none" fill-rule="evenodd" transform="translate(-213.000000, -1601.000000)">
        <path d="M240,1613.33568 L240,1618.66432 C240,1619.58626 239.281488,1620.33353 238.395026,1620.33353 L232.561841,1620.33353 C232.067447,1620.33353 231.667037,1620.74996 231.667037,1621.26414 L231.667037,1627.33079 C231.667037,1628.25273 230.948525,1629 230.062063,1629 L224.938493,1629 C224.052031,1629 223.333519,1628.25273 223.333519,1627.33079 L223.333519,1621.26414 C223.333519,1620.74996 222.933109,1620.33353 222.438159,1620.33353 L216.604974,1620.33353 C215.718512,1620.33353 215,1619.58626 215,1618.66432 L215,1613.33568 C215,1612.41374 215.718512,1611.66647 216.604974,1611.66647 L222.438159,1611.66647 C222.933109,1611.66647 223.333519,1611.25004 223.333519,1610.73528 L223.333519,1604.66921 C223.333519,1603.74727 224.052031,1603 224.938493,1603 L230.062063,1603 C230.948525,1603 231.667037,1603.74727 231.667037,1604.66921 L231.667037,1610.73528 C231.667037,1611.25004 232.067447,1611.66647 232.561841,1611.66647 L238.395026,1611.66647 C239.281488,1611.66647 240,1612.41374 240,1613.33568 Z" id="Page-1" stroke="#231F20" stroke-width="2.4" transform="translate(227.500000, 1616.000000) rotate(-360.000000) translate(-227.500000, -1616.000000) "></path>
    </g>
</svg>