<?xml version="1.0" encoding="UTF-8" standalone="no"?>
<svg width="42px" height="29px" viewBox="0 0 42 29" version="1.1" xmlns="http://www.w3.org/2000/svg" xmlns:xlink="http://www.w3.org/1999/xlink">
    <!-- Generator: Sketch 48.2 (47327) - http://www.bohemiancoding.com/sketch -->
    <title>Group 4</title>
    <desc>Created with Sketch.</desc>
    <defs>
        <polygon id="path-1" points="0.00362264151 0.424961538 19.2489057 0.424961538 19.2489057 7.11721346 0.00362264151 7.11721346"></polygon>
        <polygon id="path-3" points="19.043584 29 41.56152 29 41.56152 0.433294118 -1.69406589e-20 0.433294118 -1.69406589e-20 29 19.043584 29 19.043584 24.3563711 -2.69439388e-05 24.3563711 -2.69439388e-05 29.0001137 19.043584 29.0001137"></polygon>
        <polygon id="path-5" points="19.3677736 4.83333333 0.118844584 4.83333333 0.118844584 0.447683772 19.3677736 0.447683772"></polygon>
    </defs>
    <g id="320px_Home" stroke="none" stroke-width="1" fill="none" fill-rule="evenodd" transform="translate(-71.000000, -1603.000000)">
        <g id="Group-4" transform="translate(92.500000, 1618.000000) rotate(-360.000000) translate(-92.500000, -1618.000000) translate(71.000000, 1603.000000)">
            <g id="Group-3">
                <mask id="mask-2" fill="white">
                    <use xlink:href="#path-1"></use>
                </mask>
                <g id="Clip-2"></g>
                <path d="M9.62626415,2.655675 C13.4073962,2.655675 15.8526792,3.29702115 16.7356981,3.77105962 C15.8526792,4.24509808 13.4073962,4.88644423 9.62626415,4.88644423 C5.84513208,4.88644423 3.39984906,4.24509808 2.51683019,3.77105962 C3.39984906,3.29702115 5.84513208,2.655675 9.62626415,2.655675 M9.62626415,7.11721346 C11.2338113,7.11721346 19.2489057,6.95548269 19.2489057,3.77105962 C19.2489057,0.586636538 11.2338113,0.424905769 9.62626415,0.424905769 C8.01871698,0.424905769 0.00362264151,0.586636538 0.00362264151,3.77105962 C0.00362264151,6.95548269 8.01871698,7.11721346 9.62626415,7.11721346" id="Fill-1" fill="#020303" mask="url(#mask-2)"></path>
            </g>
            <g id="Group-6" transform="translate(0.000000, 18.527778)" fill="#020303">
                <path d="M18.1168302,0.24317037 C17.5558868,0.236188889 17.0747547,0.62017037 16.9847547,1.14539259 C16.4866415,1.5965037 13.8998491,2.39131852 9.62626415,2.39131852 C5.35267925,2.39131852 2.74890566,1.58576296 2.26777358,1.14539259 C2.21796226,0.551966667 1.67060377,0.109448148 1.04513208,0.157244444 C0.419660377,0.204503704 -0.0461886792,0.723818519 0.00362264151,1.31724444 C0.00362264151,4.38372593 8.01871698,4.53946667 9.62626415,4.53946667 C11.2338113,4.53946667 19.2489057,4.38372593 19.2489057,1.31724444 C19.2489057,0.723818519 18.7417358,0.24317037 18.1168302,0.24317037" id="Fill-4"></path>
            </g>
            <g id="Group-9" transform="translate(0.000000, 8.055556)" fill="#020303">
                <path d="M18.1168302,0.203859259 C17.5558868,0.196877778 17.0747547,0.580859259 16.9847547,1.10608148 C16.4866415,1.55719259 13.8998491,2.35200741 9.62626415,2.35200741 C5.35267925,2.35200741 2.74890566,1.54645185 2.26777358,1.10608148 C2.21796226,0.513192593 1.67060377,0.0706740741 1.04513208,0.117933333 C0.419660377,0.16572963 -0.0461886792,0.685044444 0.00362264151,1.27793333 C0.00362264151,4.34441481 8.01871698,4.50015556 9.62626415,4.50015556 C11.2338113,4.50015556 19.2489057,4.34441481 19.2489057,1.27793333 C19.2489057,0.685044444 18.7417358,0.203859259 18.1168302,0.203859259" id="Fill-7"></path>
            </g>
            <g id="Group-12" transform="translate(0.000000, 12.888889)" fill="#020303">
                <path d="M18.1168302,0.486018519 C17.5558868,0.479037037 17.0747547,0.863018519 16.9847547,1.38824074 C16.4866415,1.83935185 13.8998491,2.63416667 9.62626415,2.63416667 C5.35267925,2.63416667 2.74890566,1.82861111 2.26777358,1.38824074 C2.21796226,0.795351852 1.67060377,0.352833333 1.04513208,0.400092593 C0.419660377,0.447888889 -0.0461886792,0.967203704 0.00362264151,1.56009259 C0.00362264151,4.62657407 8.01871698,4.78231481 9.62626415,4.78231481 C11.2338113,4.78231481 19.2489057,4.62657407 19.2489057,1.56009259 C19.2489057,0.967203704 18.7417358,0.486018519 18.1168302,0.486018519" id="Fill-10"></path>
            </g>
            <g id="Group-15">
                <mask id="mask-4" fill="white">
                    <use xlink:href="#path-3"></use>
                </mask>
                <g id="Clip-14"></g>
                <path d="M17.923584,24.4510941 C17.368624,24.443702 16.892624,24.8502706 16.803584,25.4063882 C16.310784,25.8840353 13.751584,26.7256039 9.523584,26.7256039 C5.295584,26.7256039 2.719584,25.8726627 2.243584,25.4063882 C2.194304,24.7780549 1.652784,24.3095059 1.033984,24.3601137 C0.415184,24.4101529 -0.045696,24.9605843 0.003584,25.588349 C0.003584,28.8352118 7.933184,29.0001137 9.523584,29.0001137 C11.113984,29.0001137 19.043584,28.8352118 19.043584,25.588349 C19.043584,24.9605843 18.541824,24.4510941 17.923584,24.4510941" id="Fill-13" fill="#020303" mask="url(#mask-4)"></path>
            </g>
            <path d="M31.6981132,14.2314815 C35.4347614,14.2314815 37.8512764,14.8490741 38.7239068,15.3055556 C37.8512764,15.762037 35.4347614,16.3796296 31.6981132,16.3796296 C27.961465,16.3796296 25.5449501,15.762037 24.6723196,15.3055556 C25.5449501,14.8490741 27.961465,14.2314815 31.6981132,14.2314815 M31.6981132,18.5277778 C33.2867481,18.5277778 41.2075472,18.372037 41.2075472,15.3055556 C41.2075472,12.2390741 33.2867481,12.0833333 31.6981132,12.0833333 C30.1094784,12.0833333 22.1886792,12.2390741 22.1886792,15.3055556 C22.1886792,18.372037 30.1094784,18.5277778 31.6981132,18.5277778" id="Fill-16" fill="#020303"></path>
            <path d="M40.0890021,19.4319237 C39.5347631,19.4242297 39.0593814,19.8473974 38.9704571,20.4262197 C38.4782973,20.9233677 35.9224219,21.7992952 31.6999144,21.7992952 C27.4774069,21.7992952 24.9047534,20.9115309 24.4293717,20.4262197 C24.3801557,19.7722333 23.8393392,19.2845548 23.2213431,19.3372288 C22.6039062,19.389311 22.1430657,19.961623 22.1922817,20.6156094 C22.1922817,23.9950322 30.1115805,24.1666667 31.6999144,24.1666667 C33.2882484,24.1666667 41.2075472,23.9950322 41.2075472,20.6156094 C41.2075472,19.961623 40.7069983,19.4319237 40.0890021,19.4319237" id="Fill-18" fill="#020303"></path>
            <g id="Group-22" transform="translate(22.188679, 24.166667)">
                <mask id="mask-6" fill="white">
                    <use xlink:href="#path-5"></use>
                </mask>
                <g id="Clip-21"></g>
                <path d="M18.2356981,0.537144444 C17.6747547,0.530162963 17.1936226,0.914144444 17.1036226,1.43936667 C16.6055094,1.89047778 14.018717,2.68529259 9.74513208,2.68529259 C5.47154717,2.68529259 2.86777358,1.87973704 2.38664151,1.43936667 C2.33683019,0.845940741 1.7894717,0.403422222 1.164,0.451218519 C0.53909434,0.498477778 0.0726792453,1.01832963 0.122490566,1.61121852 C0.122490566,4.6777 8.13758491,4.83344074 9.74513208,4.83344074 C11.3526792,4.83344074 19.3677736,4.6777 19.3677736,1.61121852 C19.3677736,1.01832963 18.8611698,0.537144444 18.2356981,0.537144444" id="Fill-20" fill="#020303" mask="url(#mask-6)"></path>
            </g>
        </g>
    </g>
</svg>