<?xml version="1.0" encoding="UTF-8" standalone="no"?>
<svg width="14px" height="14px" viewBox="0 0 14 14" version="1.1" xmlns="http://www.w3.org/2000/svg" xmlns:xlink="http://www.w3.org/1999/xlink">
    <!-- Generator: Sketch 48.2 (47327) - http://www.bohemiancoding.com/sketch -->
    <title>Fill 1</title>
    <desc>Created with Sketch.</desc>
    <defs></defs>
    <g id="Icons/Social/Instagram/Black" stroke="none" stroke-width="1" fill="none" fill-rule="evenodd" transform="translate(-5.000000, -5.000000)">
        <g id="Group-14" fill="#000000">
            <path d="M17.5001318,17.0756995 C17.5001318,17.2906973 17.271643,17.5001722 17.0559378,17.5001722 L7.02607291,17.5001722 C6.81045924,17.5001722 6.49989866,17.2906973 6.49989866,17.0756995 L6.49989866,11.0000741 L7.94246917,11.0000741 C7.8442577,11.5002201 7.79126196,11.733465 7.79126196,12.1210774 C7.79126196,14.4589267 9.69749187,16.3604336 12.0407765,16.3604336 C14.3842747,16.3604336 16.2905657,14.458469 16.2905657,12.1206197 C16.2905657,11.733465 16.2375394,11.5002201 16.1398161,11.0000741 L17.5001318,11.0000741 L17.5001318,17.0756995 Z M12.040807,9.44098916 C13.5245354,9.44098916 14.7272064,10.6412054 14.7272064,12.1210774 C14.7272064,13.601163 13.5245354,14.8013487 12.0407765,14.8013487 C10.5573532,14.8013487 9.3544077,13.601163 9.3544077,12.1210774 C9.3544077,10.6412054 10.5573227,9.44098916 12.040807,9.44098916 Z M17.0195394,6.99994333 C17.2849453,6.99994333 17.5001318,7.21518524 17.5001318,7.48059126 L17.5001318,9.01956784 C17.5001318,9.28503489 17.2849453,9.50021577 17.0195394,9.50021577 L15.480527,9.50021577 C15.2150906,9.50021577 14.9999346,9.28503489 14.9999346,9.01956784 L14.9999346,7.48059126 C14.9999346,7.21518524 15.2150906,6.99994333 15.480527,6.99994333 L17.0195394,6.99994333 Z M17.3488941,5 L6.7003489,5 C5.78300684,5 5,5.861822 5,6.77646279 L5,17.4331341 C5,18.3474698 5.78300684,19 6.7003489,19 L17.3488941,19 C18.2662057,19 19,18.3474698 19,17.4331341 L19,6.77646279 C19,5.861822 18.2662057,5 17.3488941,5 Z" id="Fill-1"></path>
        </g>
    </g>
</svg>