<?xml version="1.0" encoding="UTF-8" standalone="no"?>
<svg width="14px" height="14px" viewBox="0 0 14 14" version="1.1" xmlns="http://www.w3.org/2000/svg" xmlns:xlink="http://www.w3.org/1999/xlink">
    <!-- Generator: Sketch 48.2 (47327) - http://www.bohemiancoding.com/sketch -->
    <title>Group</title>
    <desc>Created with Sketch.</desc>
    <defs></defs>
    <g id="Icons/Social/ShareLink/Black" stroke="none" stroke-width="1" fill="none" fill-rule="evenodd" transform="translate(-5.000000, -5.000000)">
        <g id="Group" transform="translate(5.000000, 5.000000)" fill="#000000" fill-rule="nonzero">
            <path d="M0.927359591,8.58422326 C-0.309102781,9.82069939 -0.309125558,11.8362251 0.927325426,13.0726826 C2.16375886,14.3091214 4.17931861,14.3091027 5.41578715,13.0726452 L8.05608093,10.4323564 C9.23889124,9.24953699 9.29580192,7.35504698 8.21288031,6.10889621 C8.08113548,5.95721505 7.87837329,5.88750563 7.68120649,5.92610732 C7.48403969,5.96470901 7.32253224,6.10573584 7.25770899,6.29590147 C7.19288573,6.4860671 7.2346309,6.69637511 7.36717129,6.8473616 C8.07278621,7.65934456 8.04002051,8.86426888 7.26400699,9.64027532 L4.62370816,12.2805642 C3.81235924,13.0919124 2.53074549,13.091931 1.71941449,12.2806015 C0.908078081,11.4692533 0.908085736,10.1876338 1.7194354,9.37630431 L4.35972863,6.73599679 C4.504572,6.59518802 4.56238061,6.38729954 4.51101889,6.19193419 C4.45965718,5.99656884 4.3070824,5.8439938 4.11171717,5.7926318 C3.91635194,5.74126979 3.70846343,5.79907812 3.5676545,5.94392133 L0.927359591,8.58422326 Z M5.94392002,3.56765576 C4.76110915,4.75046768 4.70419083,6.64494462 5.78712625,7.89112899 C5.99104778,8.12466103 6.34567684,8.14866171 6.57921243,7.944736 C6.81274801,7.74081029 6.83675494,7.38618071 6.6328334,7.15264867 C5.92721661,6.34066571 5.95998138,5.13574512 6.73599397,4.35972935 L9.37628888,1.71943489 C10.1876363,0.908084824 11.4692543,0.908075489 12.2805921,1.71941435 C13.0919275,2.53074761 13.0919167,3.81236896 12.280562,4.62370596 L9.64026953,7.26401348 C9.49553853,7.40484673 9.437816,7.61268038 9.48919242,7.80797622 C9.54056885,8.00327205 9.6930899,8.1557935 9.88838556,8.2071704 C10.0836812,8.2585473 10.291515,8.20082524 10.4323485,8.05609454 L13.0726423,5.41579261 C14.3091084,4.17932769 14.3091176,2.16376275 13.0726798,0.927323959 C11.8362341,-0.3091223 9.82067917,-0.309105497 8.58421493,0.927359431 L5.94392002,3.56765576 Z" id="Shape"></path>
        </g>
    </g>
</svg>