<?xml version="1.0" encoding="UTF-8" standalone="no"?>
<svg width="14px" height="10px" viewBox="0 0 14 10" version="1.1" xmlns="http://www.w3.org/2000/svg" xmlns:xlink="http://www.w3.org/1999/xlink">
    <!-- Generator: Sketch 48.2 (47327) - http://www.bohemiancoding.com/sketch -->
    <title>Group 31</title>
    <desc>Created with Sketch.</desc>
    <defs></defs>
    <g id="Icons/Social/Email/White-Copy" stroke="none" stroke-width="1" fill="none" fill-rule="evenodd" transform="translate(-5.000000, -7.000000)">
        <g id="Group-31" transform="translate(5.000000, 7.000000)" fill="#000000" fill-rule="nonzero">
            <g id="Group-27">
                <path d="M1.43181811,0 C0.646847651,0 0,0.655789794 0,1.45161173 L0,8.54838827 C0,9.34421021 0.646847651,10 1.43181811,10 L12.5681818,10 C13.3531523,10 14,9.34421021 14,8.54838827 L14,1.45161173 C14,0.655789794 13.3531523,0 12.5681818,0 L1.43181811,0 Z M1.47368421,1 L12.5263158,1 C12.7969314,1 13,1.20577579 13,1.47999952 L13,8.52000048 C13,8.79422421 12.7969314,9 12.5263158,9 L1.47368421,9 C1.20306858,9 1,8.79422421 1,8.52000048 L1,1.47999952 C1,1.20577579 1.20306858,1 1.47368421,1 Z M11.2376031,2.13842288 L7.30878216,5.9719189 C7.11806878,6.1579416 6.86567089,6.15768965 6.67570201,5.9719189 L2.75617617,2.13842288 C2.66834207,2.05104874 2.55083212,2.00491143 2.43034098,2.01049191 C2.24883622,2.01762429 2.08946662,2.14017053 2.0271478,2.32052472 C1.96482899,2.5008789 2.01195713,2.70316587 2.14637847,2.8322956 L4.43197657,5.06644987 L2.15568847,7.16773641 C2.03439675,7.27917172 1.97874699,7.45067634 2.00979652,7.61735461 C2.04084604,7.78403288 2.15385227,7.92042597 2.30605476,7.97492409 C2.45825725,8.02942221 2.62640824,7.99370118 2.74688106,7.88127749 L5.09300163,5.71111232 L6.07053697,6.66577587 C6.58726444,7.1709961 7.39714526,7.17483843 7.91391741,6.67065753 L8.8961301,5.71106508 L11.2468982,7.88123025 C11.367371,7.99365394 11.535522,8.02937497 11.6877245,7.97487685 C11.839927,7.92037873 11.9529332,7.78398564 11.9839828,7.61730737 C12.0150323,7.4506291 11.9593825,7.27912448 11.8380908,7.16768917 L9.55714026,5.06640263 L11.8427384,2.83224836 C11.9884745,2.70110953 12.0390513,2.48643012 11.9685204,2.29835059 C11.8979896,2.11027107 11.7220073,1.99054076 11.5308607,2.00058687 C11.4203428,2.00659851 11.3158479,2.05569601 11.2376031,2.13842288 Z" id="Shape"></path>
            </g>
        </g>
    </g>
</svg>