<?xml version="1.0" encoding="UTF-8" standalone="no"?>
<svg width="14px" height="12px" viewBox="0 0 14 12" version="1.1" xmlns="http://www.w3.org/2000/svg" xmlns:xlink="http://www.w3.org/1999/xlink">
    <!-- Generator: Sketch 48.2 (47327) - http://www.bohemiancoding.com/sketch -->
    <title>Shape</title>
    <desc>Created with Sketch.</desc>
    <defs></defs>
    <g id="Icons/Social/Twitter/Black" stroke="none" stroke-width="1" fill="none" fill-rule="evenodd" transform="translate(-5.000000, -6.000000)">
        <path d="M17.57536,9.20318266 C17.57536,9.07886266 17.57536,8.95510266 17.56696,8.83190266 C18.1291056,8.42529274 18.6143591,7.92183512 19,7.34510266 C18.4757723,7.57739165 17.9196644,7.7297267 17.35024,7.79702266 C17.9498566,7.43805261 18.3986292,6.87345497 18.61304,6.20830266 C18.0492082,6.54287763 17.4323618,6.77866939 16.78912,6.90550266 C15.8987664,5.95876345 14.4840028,5.7270457 13.3381476,6.34028342 C12.1922923,6.95352113 11.600314,8.25920507 11.89416,9.52518266 C9.58466161,9.4094024 7.43290644,8.31856369 5.9744,6.52414266 C5.21202874,7.8365837 5.60143321,9.51558397 6.86368,10.3584627 C6.40657507,10.3449149 5.95943645,10.221606 5.56,9.99894266 C5.56,10.0107027 5.56,10.0230227 5.56,10.0353427 C5.56037415,11.4026347 6.52418083,12.5802823 7.8644,12.8510227 C7.44152697,12.9663491 6.99784513,12.9832075 6.56744,12.9003027 C6.94373084,14.0703794 8.02208175,14.8719416 9.25096,14.8950227 C8.23385162,15.6943845 6.97739333,16.1283262 5.68376,16.1270227 C5.455226,16.1265839 5.22691428,16.1127469 5,16.0855827 C6.31355613,16.9285375 7.8419515,17.3756641 9.40272,17.3735827 C14.68576,17.3758227 17.57536,12.9988627 17.57536,9.20318266 Z" id="Shape" fill="#000000" fill-rule="nonzero"></path>
    </g>
</svg>