<svg width="14" height="14" xmlns="http://www.w3.org/2000/svg" xmlns:xlink="http://www.w3.org/1999/xlink"><defs><path id="a" d="M0 0h14v14H0z"/></defs><mask id="b"><use xlink:href="#a"/></mask><path d="M14 13.227a.773.773 0 0 1-.773.773H9.66V8.578h1.82l.273-2.113H9.659V5.117c0-.612.17-1.029 1.048-1.029h1.119v-1.89a14.957 14.957 0 0 0-1.63-.084c-1.614 0-2.718.985-2.718 2.794v1.557H5.654v2.113h1.824V14H.773A.773.773 0 0 1 0 13.227V.773C0 .346.346 0 .773 0h12.454c.427 0 .773.346.773.773v12.454z" mask="url(#b)"/></svg>