<svg width="34" height="28" xmlns="http://www.w3.org/2000/svg" xmlns:xlink="http://www.w3.org/1999/xlink"><defs><path id="a" d="M17.875.398v5.6H.077v-5.6h17.798z"/><path id="c" d="M17.875.398v5.6H.077v-5.6h17.798z"/></defs><g fill="none" fill-rule="evenodd"><path d="M1.59 5.123c2.616-1.987 5.855-3.38 9.108-2.562 2.781.7 5.093 2.71 7.942 3.37 5.134 1.192 10.532.089 14.866-3.051 1.161-.842.063-2.862-1.11-2.012-5.174 3.75-11.733 4.214-17.319 1.194C12.774.816 10.637-.178 7.98.027 5.238.237 2.693 1.43.48 3.11-.659 3.977.438 6 1.591 5.123" fill="#231F20"/><g transform="translate(15.814 8)"><mask id="b" fill="#fff"><use xlink:href="#a"/></mask><path d="M.855 5.137c5.625 1.724 11.657.852 16.52-2.566 1.173-.823.065-2.805-1.119-1.973-4.402 3.093-9.711 3.898-14.812 2.335-1.37-.42-1.956 1.785-.59 2.204" fill="#231F20" mask="url(#b)"/></g><path d="M1.59 19.523c2.616-1.987 5.855-3.38 9.108-2.562 2.781.7 5.093 2.71 7.942 3.37 5.134 1.191 10.532.089 14.866-3.052 1.161-.841.063-2.861-1.11-2.011-5.174 3.749-11.733 4.214-17.319 1.194-2.303-1.246-4.44-2.24-7.097-2.035-2.742.21-5.287 1.403-7.499 3.084-1.14.866-.043 2.888 1.11 2.012m-.001 7.2c2.616-1.987 5.855-3.38 9.108-2.562 2.781.7 5.093 2.71 7.942 3.37 5.134 1.191 10.532.089 14.866-3.051 1.161-.842.063-2.862-1.11-2.012-5.174 3.749-11.733 4.214-17.319 1.194-2.303-1.246-4.44-2.24-7.097-2.035-2.742.211-5.287 1.403-7.499 3.084-1.14.866-.043 2.888 1.11 2.012" fill="#231F20"/><path d="M15.814 5.054v12.292c0 1.404 2.372 1.406 2.372 0V5.054c0-1.404-2.372-1.407-2.372 0M0 4.288v13.824c0 1.45 2.372 1.452 2.372 0V4.288c0-1.45-2.372-1.452-2.372 0" fill="#231F20"/><path d="M1.59 5.123c2.616-1.987 5.855-3.38 9.108-2.562 2.781.7 5.093 2.71 7.942 3.37 5.134 1.192 10.532.089 14.866-3.051 1.161-.842.063-2.862-1.11-2.012-5.174 3.75-11.733 4.214-17.319 1.194C12.774.816 10.637-.178 7.98.027 5.238.237 2.693 1.43.48 3.11-.659 3.977.438 6 1.591 5.123" fill="#231F20"/><g transform="translate(15.814 8)"><mask id="d" fill="#fff"><use xlink:href="#c"/></mask><path d="M.855 5.137c5.625 1.724 11.657.852 16.52-2.566 1.173-.823.065-2.805-1.119-1.973-4.402 3.093-9.711 3.898-14.812 2.335-1.37-.42-1.956 1.785-.59 2.204" fill="#231F20" mask="url(#d)"/></g><path d="M1.59 19.523c2.616-1.987 5.855-3.38 9.108-2.562 2.781.7 5.093 2.71 7.942 3.37 5.134 1.191 10.532.089 14.866-3.052 1.161-.841.063-2.861-1.11-2.011-5.174 3.749-11.733 4.214-17.319 1.194-2.303-1.246-4.44-2.24-7.097-2.035-2.742.21-5.287 1.403-7.499 3.084-1.14.866-.043 2.888 1.11 2.012m-.001 7.2c2.616-1.987 5.855-3.38 9.108-2.562 2.781.7 5.093 2.71 7.942 3.37 5.134 1.191 10.532.089 14.866-3.051 1.161-.842.063-2.862-1.11-2.012-5.174 3.749-11.733 4.214-17.319 1.194-2.303-1.246-4.44-2.24-7.097-2.035-2.742.211-5.287 1.403-7.499 3.084-1.14.866-.043 2.888 1.11 2.012" fill="#231F20"/><path d="M15.814 5.054v12.292c0 1.404 2.372 1.406 2.372 0V5.054c0-1.404-2.372-1.407-2.372 0" fill="#231F20"/></g></svg>