<svg width="29" height="30" xmlns="http://www.w3.org/2000/svg"><path d="M27 12.336v5.328c0 .922-.719 1.67-1.605 1.67h-5.833c-.495 0-.895.416-.895.93v6.067c0 .922-.718 1.669-1.605 1.669h-5.124c-.886 0-1.604-.747-1.604-1.67v-6.066c0-.514-.4-.93-.896-.93H3.605c-.886 0-1.605-.748-1.605-1.67v-5.328c0-.922.719-1.67 1.605-1.67h5.833c.495 0 .896-.416.896-.93V3.668c0-.922.718-1.669 1.604-1.669h5.124c.887 0 1.605.747 1.605 1.67v6.065c0 .515.4.931.895.931h5.833c.886 0 1.605.748 1.605 1.67z" stroke="#231F20" stroke-width="2.4" fill="none"/></svg>