<svg width="29" height="26" xmlns="http://www.w3.org/2000/svg" xmlns:xlink="http://www.w3.org/1999/xlink"><defs><path id="a" d="M0 22.022V.246h3.135v21.776z"/><path id="c" d="M.14.525h17.542v17.86H.139z"/></defs><g fill="none" fill-rule="evenodd"><path d="M1.296 25.99a88.514 88.514 0 0 1 17.779-.225c1.743.154 1.732-2.422 0-2.574a88.513 88.513 0 0 0-17.779.224c-1.718.195-1.738 2.771 0 2.574" fill="#231F20"/><g transform="translate(0 3.94)"><mask id="b" fill="#fff"><use xlink:href="#a"/></mask><path d="M0 1.612v19.044c0 1.82 3.135 1.822 3.135 0V1.612C3.135-.208 0-.211 0 1.612" fill="#231F20" mask="url(#b)"/></g><path d="M2.068 7.082a288.517 288.517 0 0 1 17.014-1.271c1.724-.078 1.733-2.736 0-2.658-5.685.256-11.355.68-17.014 1.272-1.703.178-1.722 2.837 0 2.657" fill="#231F20"/><path d="M18.254 4.91c.582 3.032.245 6.325.16 9.4a406 406 0 0 1-.385 9.548c-.092 1.808 2.525 1.803 2.618 0 .181-3.534.324-7.07.412-10.61.075-3.026.292-6.101-.281-9.085-.34-1.771-2.863-1.021-2.524.748M6.67 13.362l5.119 5.146c1.237 1.243 3.157-.686 1.92-1.93l-5.12-5.146c-1.237-1.244-3.157.686-1.92 1.93" fill="#231F20"/><g transform="translate(10.973)"><mask id="d" fill="#fff"><use xlink:href="#c"/></mask><path d="M2.473 17.975L17.28 2.9c1.245-1.267-.686-3.234-1.932-1.966L.541 16.009c-1.244 1.267.687 3.234 1.932 1.966" fill="#231F20" mask="url(#d)"/></g></g></svg>