<svg width="42" height="29" xmlns="http://www.w3.org/2000/svg" xmlns:xlink="http://www.w3.org/1999/xlink"><defs><path id="a" d="M.004.425h19.245v6.692H.004z"/><path id="c" d="M19.044 29h22.518V.433H0V29h19.044v-4.644H0V29h19.044z"/><path id="e" d="M19.368 4.833H.118V.448h19.25z"/></defs><g fill="none" fill-rule="evenodd"><mask id="b" fill="#fff"><use xlink:href="#a"/></mask><path d="M9.626 2.656c3.781 0 6.227.641 7.11 1.115-.883.474-3.329 1.115-7.11 1.115-3.78 0-6.226-.64-7.11-1.115.884-.474 3.33-1.115 7.11-1.115m0 4.461c1.608 0 9.623-.162 9.623-3.346S11.234.425 9.626.425C8.02.425.004.587.004 3.77s8.015 3.346 9.622 3.346" fill="#020303" mask="url(#b)"/><path d="M18.117 18.77c-.561-.006-1.042.378-1.132.903-.498.451-3.085 1.246-7.359 1.246-4.273 0-6.877-.805-7.358-1.246-.05-.593-.597-1.036-1.223-.988-.625.047-1.091.567-1.041 1.16 0 3.067 8.015 3.222 9.622 3.222 1.608 0 9.623-.155 9.623-3.222 0-.593-.507-1.074-1.132-1.074m0-10.511c-.561-.008-1.042.376-1.132.902-.498.45-3.085 1.246-7.359 1.246-4.273 0-6.877-.806-7.358-1.246-.05-.593-.597-1.036-1.223-.989-.625.048-1.091.568-1.041 1.16 0 3.067 8.015 3.223 9.622 3.223 1.608 0 9.623-.156 9.623-3.223 0-.592-.507-1.074-1.132-1.074m0 5.116c-.561-.007-1.042.377-1.132.902-.498.451-3.085 1.246-7.359 1.246-4.273 0-6.877-.805-7.358-1.246-.05-.593-.597-1.035-1.223-.988-.625.048-1.091.567-1.041 1.16 0 3.066 8.015 3.222 9.622 3.222 1.608 0 9.623-.156 9.623-3.222 0-.593-.507-1.074-1.132-1.074" fill="#020303"/><mask id="d" fill="#fff"><use xlink:href="#c"/></mask><path d="M17.924 24.451a1.125 1.125 0 0 0-1.12.955c-.493.478-3.052 1.32-7.28 1.32s-6.804-.853-7.28-1.32a1.128 1.128 0 0 0-1.21-1.046c-.619.05-1.08.6-1.03 1.228 0 3.247 7.93 3.412 9.52 3.412 1.59 0 9.52-.165 9.52-3.412a1.13 1.13 0 0 0-1.12-1.137" fill="#020303" mask="url(#d)"/><path d="M31.698 14.231c3.737 0 6.153.618 7.026 1.075-.873.456-3.29 1.074-7.026 1.074-3.737 0-6.153-.618-7.026-1.074.873-.457 3.29-1.075 7.026-1.075m0 4.297c1.589 0 9.51-.156 9.51-3.222 0-3.067-7.921-3.223-9.51-3.223-1.589 0-9.51.156-9.51 3.223 0 3.066 7.921 3.222 9.51 3.222m8.391.904c-.554-.008-1.03.415-1.119.994-.492.497-3.048 1.373-7.27 1.373-4.223 0-6.795-.887-7.27-1.373-.05-.654-.59-1.141-1.209-1.089-.617.052-1.078.625-1.029 1.279 0 3.379 7.92 3.55 9.508 3.55 1.588 0 9.508-.171 9.508-3.55 0-.654-.501-1.184-1.119-1.184" fill="#020303"/><g transform="translate(22.189 24.167)"><mask id="f" fill="#fff"><use xlink:href="#e"/></mask><path d="M18.236.537c-.561-.007-1.042.377-1.132.902-.498.451-3.085 1.246-7.359 1.246-4.273 0-6.877-.805-7.358-1.246C2.337.846 1.789.403 1.164.451.539.498.073 1.018.122 1.611c0 3.067 8.016 3.222 9.623 3.222 1.608 0 9.623-.155 9.623-3.222 0-.593-.507-1.074-1.132-1.074" fill="#020303" mask="url(#f)"/></g></g></svg>