<svg width="14" height="14" xmlns="http://www.w3.org/2000/svg"><path d="M12.5 12.076c0 .215-.228.424-.444.424H2.026c-.216 0-.526-.21-.526-.424V6h1.442c-.098.5-.15.733-.15 1.121a4.249 4.249 0 0 0 4.249 4.24 4.25 4.25 0 0 0 4.25-4.24c0-.388-.053-.62-.151-1.12h1.36v6.075zM7.04 4.44c1.485 0 2.687 1.2 2.687 2.68 0 1.48-1.202 2.68-2.686 2.68a2.684 2.684 0 0 1-2.687-2.68c0-1.48 1.203-2.68 2.687-2.68zM12.02 2a.48.48 0 0 1 .48.48v1.54a.48.48 0 0 1-.48.48h-1.54a.48.48 0 0 1-.48-.48V2.48a.48.48 0 0 1 .48-.48h1.54zm.329-2H1.7C.783 0 0 .862 0 1.776v10.657C0 13.347.783 14 1.7 14h10.65c.917 0 1.651-.653 1.651-1.567V1.776C14 .862 13.266 0 12.349 0z" fill-rule="evenodd"/></svg>