<svg width="14" height="14" xmlns="http://www.w3.org/2000/svg"><path d="M.927 8.584a3.18 3.18 0 0 0 0 4.489 3.18 3.18 0 0 0 4.489 0l2.64-2.64a3.178 3.178 0 0 0 .157-4.324.561.561 0 1 0-.846.738 2.035 2.035 0 0 1-.103 2.793l-2.64 2.64a2.037 2.037 0 0 1-2.905 0 2.037 2.037 0 0 1 0-2.904l2.64-2.64a.56.56 0 1 0-.791-.792l-2.64 2.64zm5.017-5.016a3.178 3.178 0 0 0-.157 4.323.561.561 0 0 0 .846-.738 2.035 2.035 0 0 1 .103-2.793l2.64-2.64a2.037 2.037 0 0 1 2.905 0 2.037 2.037 0 0 1 0 2.904l-2.64 2.64a.56.56 0 1 0 .791.792l2.64-2.64a3.18 3.18 0 0 0 0-4.489 3.18 3.18 0 0 0-4.488 0l-2.64 2.64z"/></svg>