<svg width="14" height="10" xmlns="http://www.w3.org/2000/svg"><path d="M1.432 0C.647 0 0 .656 0 1.452v7.096C0 9.344.647 10 1.432 10h11.136C13.353 10 14 9.344 14 8.548V1.452C14 .656 13.353 0 12.568 0H1.432zm.042 1h11.052c.27 0 .474.206.474.48v7.04c0 .274-.203.48-.474.48H1.474A.466.466 0 0 1 1 8.52V1.48c0-.274.203-.48.474-.48zm9.764 1.138l-3.93 3.834a.429.429 0 0 1-.632 0l-3.92-3.834a.433.433 0 0 0-.326-.128.45.45 0 0 0-.403.31.491.491 0 0 0 .12.512l2.285 2.234-2.276 2.102a.49.49 0 0 0-.146.45.467.467 0 0 0 .296.357.43.43 0 0 0 .44-.094l2.347-2.17.978.955a1.311 1.311 0 0 0 1.843.005l.982-.96 2.35 2.17a.43.43 0 0 0 .442.094.467.467 0 0 0 .296-.358.49.49 0 0 0-.146-.45l-2.28-2.1 2.285-2.235a.49.49 0 0 0 .126-.534.447.447 0 0 0-.438-.297.436.436 0 0 0-.293.137z"/></svg>