<svg width="14" height="12" xmlns="http://www.w3.org/2000/svg"><path d="M12.575 3.203c0-.124 0-.248-.008-.371A5.844 5.844 0 0 0 14 1.345a5.733 5.733 0 0 1-1.65.452A2.882 2.882 0 0 0 13.613.208a5.77 5.77 0 0 1-1.824.698 2.875 2.875 0 0 0-4.895 2.62A8.155 8.155 0 0 1 .974.523a2.874 2.874 0 0 0 .89 3.834 2.851 2.851 0 0 1-1.304-.36v.037c0 1.368.964 2.545 2.304 2.816a2.868 2.868 0 0 1-1.297.05 2.876 2.876 0 0 0 2.684 1.994A5.764 5.764 0 0 1 0 10.085a8.132 8.132 0 0 0 4.403 1.289c5.283.002 8.172-4.375 8.172-8.17z"/></svg>